<?xml version="1.0" encoding="UTF-8" standalone="no"?>
<!DOCTYPE svg PUBLIC "-//W3C//DTD SVG 1.1//EN" "http://www.w3.org/Graphics/SVG/1.1/DTD/svg11.dtd">
<svg width="100%" height="100%" viewBox="0 0 700 1926" version="1.1" xmlns="http://www.w3.org/2000/svg" xmlns:xlink="http://www.w3.org/1999/xlink" xml:space="preserve" xmlns:serif="http://www.serif.com/" style="fill-rule:evenodd;clip-rule:evenodd;stroke-linecap:round;stroke-linejoin:round;stroke-miterlimit:1.5;">
    <g transform="matrix(0.53819,0,0,0.972236,-3547.93,0)">
        <rect x="6592.34" y="0" width="1300.66" height="1981" style="fill:none;"/>
        <clipPath id="_clip1">
            <rect x="6592.34" y="0" width="1300.66" height="1981"/>
        </clipPath>
        <g clip-path="url(#_clip1)">
            <g id="dogwood-patter" serif:id="dogwood patter" transform="matrix(2.14841,0,0,4.15645,5153.65,994.469)">
                <g opacity="0.89">
                    <g id="Pink-Dogwood-Flour" serif:id="Pink Dogwood Flour" transform="matrix(0.443328,-0.00388384,0.0124267,0.116128,974.994,72.2453)">
                        <g transform="matrix(2.32188,0,0,2.53622,-948.765,-6975.15)">
                            <circle cx="638.709" cy="2939" r="20.99" style="fill:rgb(252,248,244);stroke:rgb(252,248,244);stroke-width:2.23px;"/>
                        </g>
                        <g transform="matrix(0.740299,-1.5192e-32,4.32562e-33,0.868104,-278.136,-2037.69)">
                            <g id="Pink-Dogwood-Petal" serif:id="Pink Dogwood Petal">
                                <path d="M1097.37,2892.17C1097.27,2892.66 1097.17,2892.92 1097.08,2892.92C1094.41,2892.92 1084.56,2865.68 1060.79,2852.97C1052.02,2848.27 1037.28,2836.22 1028.28,2823.75C1015.93,2806.65 1010.3,2788.03 1008.48,2779.72C1000.13,2741.52 1004.34,2720.49 1013.24,2707.65C1021.73,2695.39 1038.52,2686.23 1050.65,2683.14C1062.78,2680.05 1071.6,2679.32 1075.79,2679.31C1079.99,2679.29 1083.91,2679.28 1086.63,2682.68C1089.34,2686.07 1091,2689.01 1097.08,2689.01C1097.18,2689.01 1097.27,2689.07 1097.37,2689.17C1097.46,2689.07 1097.56,2689.01 1097.65,2689.01C1103.73,2689.01 1105.39,2686.07 1108.11,2682.68C1110.82,2679.28 1114.75,2679.29 1118.94,2679.31C1123.13,2679.32 1131.95,2680.05 1144.08,2683.14C1156.21,2686.23 1173,2695.39 1181.5,2707.65C1190.4,2720.49 1194.6,2741.52 1186.25,2779.72C1184.43,2788.03 1178.8,2806.65 1166.46,2823.75C1157.45,2836.22 1142.71,2848.27 1133.94,2852.97C1110.17,2865.68 1100.33,2892.92 1097.65,2892.92C1097.56,2892.92 1097.46,2892.66 1097.37,2892.17Z" style="fill:rgb(219,234,219);"/>
                            </g>
                        </g>
                        <g transform="matrix(4.53303e-17,0.808637,-0.79474,5.3156e-17,2838.06,-408.574)">
                            <g id="Pink-Dogwood-Petal1" serif:id="Pink Dogwood Petal">
                                <path d="M1097.37,2892.17C1097.27,2892.66 1097.17,2892.92 1097.08,2892.92C1094.41,2892.92 1084.56,2865.68 1060.79,2852.97C1052.02,2848.27 1037.28,2836.22 1028.28,2823.75C1015.93,2806.65 1010.3,2788.03 1008.48,2779.72C1000.13,2741.52 1004.34,2720.49 1013.24,2707.65C1021.73,2695.39 1038.52,2686.23 1050.65,2683.14C1062.78,2680.05 1071.6,2679.32 1075.79,2679.31C1079.99,2679.29 1083.91,2679.28 1086.63,2682.68C1089.34,2686.07 1091,2689.01 1097.08,2689.01C1097.18,2689.01 1097.27,2689.07 1097.37,2689.17C1097.46,2689.07 1097.56,2689.01 1097.65,2689.01C1103.73,2689.01 1105.39,2686.07 1108.11,2682.68C1110.82,2679.28 1114.75,2679.29 1118.94,2679.31C1123.13,2679.32 1131.95,2680.05 1144.08,2683.14C1156.21,2686.23 1173,2695.39 1181.5,2707.65C1190.4,2720.49 1194.6,2741.52 1186.25,2779.72C1184.43,2788.03 1178.8,2806.65 1166.46,2823.75C1157.45,2836.22 1142.71,2848.27 1133.94,2852.97C1110.17,2865.68 1100.33,2892.92 1097.65,2892.92C1097.56,2892.92 1097.46,2892.66 1097.37,2892.17Z" style="fill:rgb(219,234,219);"/>
                            </g>
                        </g>
                        <g transform="matrix(-0.740299,-9.90295e-17,9.73276e-17,-0.868104,1346.62,2995.29)">
                            <g id="Pink-Dogwood-Petal2" serif:id="Pink Dogwood Petal">
                                <path d="M1097.37,2892.17C1097.27,2892.66 1097.17,2892.92 1097.08,2892.92C1094.41,2892.92 1084.56,2865.68 1060.79,2852.97C1052.02,2848.27 1037.28,2836.22 1028.28,2823.75C1015.93,2806.65 1010.3,2788.03 1008.48,2779.72C1000.13,2741.52 1004.34,2720.49 1013.24,2707.65C1021.73,2695.39 1038.52,2686.23 1050.65,2683.14C1062.78,2680.05 1071.6,2679.32 1075.79,2679.31C1079.99,2679.29 1083.91,2679.28 1086.63,2682.68C1089.34,2686.07 1091,2689.01 1097.08,2689.01C1097.18,2689.01 1097.27,2689.07 1097.37,2689.17C1097.46,2689.07 1097.56,2689.01 1097.65,2689.01C1103.73,2689.01 1105.39,2686.07 1108.11,2682.68C1110.82,2679.28 1114.75,2679.29 1118.94,2679.31C1123.13,2679.32 1131.95,2680.05 1144.08,2683.14C1156.21,2686.23 1173,2695.39 1181.5,2707.65C1190.4,2720.49 1194.6,2741.52 1186.25,2779.72C1184.43,2788.03 1178.8,2806.65 1166.46,2823.75C1157.45,2836.22 1142.71,2848.27 1133.94,2852.97C1110.17,2865.68 1100.33,2892.92 1097.65,2892.92C1097.56,2892.92 1097.46,2892.66 1097.37,2892.17Z" style="fill:rgb(219,234,219);"/>
                            </g>
                        </g>
                        <g transform="matrix(4.53303e-17,-0.808637,0.79474,5.3156e-17,-1769.58,1366.17)">
                            <g id="Pink-Dogwood-Petal3" serif:id="Pink Dogwood Petal">
                                <path d="M1097.37,2892.17C1097.27,2892.66 1097.17,2892.92 1097.08,2892.92C1094.41,2892.92 1084.56,2865.68 1060.79,2852.97C1052.02,2848.27 1037.28,2836.22 1028.28,2823.75C1015.93,2806.65 1010.3,2788.03 1008.48,2779.72C1000.13,2741.52 1004.34,2720.49 1013.24,2707.65C1021.73,2695.39 1038.52,2686.23 1050.65,2683.14C1062.78,2680.05 1071.6,2679.32 1075.79,2679.31C1079.99,2679.29 1083.91,2679.28 1086.63,2682.68C1089.34,2686.07 1091,2689.01 1097.08,2689.01C1097.18,2689.01 1097.27,2689.07 1097.37,2689.17C1097.46,2689.07 1097.56,2689.01 1097.65,2689.01C1103.73,2689.01 1105.39,2686.07 1108.11,2682.68C1110.82,2679.28 1114.75,2679.29 1118.94,2679.31C1123.13,2679.32 1131.95,2680.05 1144.08,2683.14C1156.21,2686.23 1173,2695.39 1181.5,2707.65C1190.4,2720.49 1194.6,2741.52 1186.25,2779.72C1184.43,2788.03 1178.8,2806.65 1166.46,2823.75C1157.45,2836.22 1142.71,2848.27 1133.94,2852.97C1110.17,2865.68 1100.33,2892.92 1097.65,2892.92C1097.56,2892.92 1097.46,2892.66 1097.37,2892.17Z" style="fill:rgb(219,234,219);"/>
                            </g>
                        </g>
                        <g transform="matrix(1.61363,0,0,1.76258,-496.395,-4701.43)">
                            <circle cx="638.709" cy="2939" r="20.99" style="fill:rgb(252,248,244);stroke:rgb(252,248,244);stroke-width:4.6px;"/>
                        </g>
                    </g>
                    <g transform="matrix(0.128371,0.00679647,-0.021746,0.0336263,1150.86,92.5883)">
                        <g transform="matrix(0.864865,0,0,0.944701,-74.1455,-2333.71)">
                            <path d="M1153.65,2919.78C1145.17,2933.49 1081.6,3007.13 1081.6,3007.13C1081.6,3007.13 1019.34,2933.28 1010.99,2919.78C997.979,2898.76 995.263,2878.37 996.371,2860.16C998.36,2827.45 1006.26,2808.57 1016.96,2790.99C1051.03,2735.02 1065.99,2679.89 1070.4,2654.03C1071.78,2645.96 1075.75,2630.38 1082.32,2630.38C1088.88,2630.38 1092.81,2645.69 1094.24,2654.03C1098.65,2679.89 1113.61,2735.02 1147.68,2790.99C1158.38,2808.57 1166.28,2827.45 1168.27,2860.16C1169.38,2878.37 1166.66,2898.76 1153.65,2919.78Z" style="fill:rgb(252,248,244);"/>
                        </g>
                        <g transform="matrix(5.29577e-17,0.944701,-0.864865,5.78463e-17,3462.68,-515.341)">
                            <path d="M1153.65,2919.78C1145.17,2933.49 1081.6,3007.13 1081.6,3007.13C1081.6,3007.13 1019.34,2933.28 1010.99,2919.78C997.979,2898.76 995.263,2878.37 996.371,2860.16C998.36,2827.45 1006.26,2808.57 1016.96,2790.99C1051.03,2735.02 1065.99,2679.89 1070.4,2654.03C1071.78,2645.96 1075.75,2630.38 1082.32,2630.38C1088.88,2630.38 1092.81,2645.69 1094.24,2654.03C1098.65,2679.89 1113.61,2735.02 1147.68,2790.99C1158.38,2808.57 1166.28,2827.45 1168.27,2860.16C1169.38,2878.37 1166.66,2898.76 1153.65,2919.78Z" style="fill:rgb(252,248,244);"/>
                        </g>
                        <g transform="matrix(-0.864865,-1.15693e-16,1.05915e-16,-0.944701,1797.97,3347.97)">
                            <path d="M1153.65,2919.78C1145.17,2933.49 1081.6,3007.13 1081.6,3007.13C1081.6,3007.13 1019.34,2933.28 1010.99,2919.78C997.979,2898.76 995.263,2878.37 996.371,2860.16C998.36,2827.45 1006.26,2808.57 1016.96,2790.99C1051.03,2735.02 1065.99,2679.89 1070.4,2654.03C1071.78,2645.96 1075.75,2630.38 1082.32,2630.38C1088.88,2630.38 1092.81,2645.69 1094.24,2654.03C1098.65,2679.89 1113.61,2735.02 1147.68,2790.99C1158.38,2808.57 1166.28,2827.45 1168.27,2860.16C1169.38,2878.37 1166.66,2898.76 1153.65,2919.78Z" style="fill:rgb(252,248,244);"/>
                        </g>
                        <g transform="matrix(1.03294e-15,-0.944701,0.864865,1.12829e-15,-1738.85,1529.6)">
                            <path d="M1153.65,2919.78C1145.17,2933.49 1081.6,3007.13 1081.6,3007.13C1081.6,3007.13 1019.34,2933.28 1010.99,2919.78C997.979,2898.76 995.263,2878.37 996.371,2860.16C998.36,2827.45 1006.26,2808.57 1016.96,2790.99C1051.03,2735.02 1065.99,2679.89 1070.4,2654.03C1071.78,2645.96 1075.75,2630.38 1082.32,2630.38C1088.88,2630.38 1092.81,2645.69 1094.24,2654.03C1098.65,2679.89 1113.61,2735.02 1147.68,2790.99C1158.38,2808.57 1166.28,2827.45 1168.27,2860.16C1169.38,2878.37 1166.66,2898.76 1153.65,2919.78Z" style="fill:rgb(252,248,244);"/>
                        </g>
                    </g>
                    <g transform="matrix(0.128371,0.00679647,-0.021746,0.0336263,1056.05,106.206)">
                        <g transform="matrix(0.864865,0,0,0.944701,-74.1455,-2333.71)">
                            <path d="M1153.65,2919.78C1145.17,2933.49 1081.6,3007.13 1081.6,3007.13C1081.6,3007.13 1019.34,2933.28 1010.99,2919.78C997.979,2898.76 995.263,2878.37 996.371,2860.16C998.36,2827.45 1006.26,2808.57 1016.96,2790.99C1051.03,2735.02 1065.99,2679.89 1070.4,2654.03C1071.78,2645.96 1075.75,2630.38 1082.32,2630.38C1088.88,2630.38 1092.81,2645.69 1094.24,2654.03C1098.65,2679.89 1113.61,2735.02 1147.68,2790.99C1158.38,2808.57 1166.28,2827.45 1168.27,2860.16C1169.38,2878.37 1166.66,2898.76 1153.65,2919.78Z" style="fill:rgb(252,248,244);"/>
                        </g>
                        <g transform="matrix(5.29577e-17,0.944701,-0.864865,5.78463e-17,3462.68,-515.341)">
                            <path d="M1153.65,2919.78C1145.17,2933.49 1081.6,3007.13 1081.6,3007.13C1081.6,3007.13 1019.34,2933.28 1010.99,2919.78C997.979,2898.76 995.263,2878.37 996.371,2860.16C998.36,2827.45 1006.26,2808.57 1016.96,2790.99C1051.03,2735.02 1065.99,2679.89 1070.4,2654.03C1071.78,2645.96 1075.75,2630.38 1082.32,2630.38C1088.88,2630.38 1092.81,2645.69 1094.24,2654.03C1098.65,2679.89 1113.61,2735.02 1147.68,2790.99C1158.38,2808.57 1166.28,2827.45 1168.27,2860.16C1169.38,2878.37 1166.66,2898.76 1153.65,2919.78Z" style="fill:rgb(252,248,244);"/>
                        </g>
                        <g transform="matrix(-0.864865,-1.15693e-16,1.05915e-16,-0.944701,1797.97,3347.97)">
                            <path d="M1153.65,2919.78C1145.17,2933.49 1081.6,3007.13 1081.6,3007.13C1081.6,3007.13 1019.34,2933.28 1010.99,2919.78C997.979,2898.76 995.263,2878.37 996.371,2860.16C998.36,2827.45 1006.26,2808.57 1016.96,2790.99C1051.03,2735.02 1065.99,2679.89 1070.4,2654.03C1071.78,2645.96 1075.75,2630.38 1082.32,2630.38C1088.88,2630.38 1092.81,2645.69 1094.24,2654.03C1098.65,2679.89 1113.61,2735.02 1147.68,2790.99C1158.38,2808.57 1166.28,2827.45 1168.27,2860.16C1169.38,2878.37 1166.66,2898.76 1153.65,2919.78Z" style="fill:rgb(252,248,244);"/>
                        </g>
                        <g transform="matrix(1.03294e-15,-0.944701,0.864865,1.12829e-15,-1738.85,1529.6)">
                            <path d="M1153.65,2919.78C1145.17,2933.49 1081.6,3007.13 1081.6,3007.13C1081.6,3007.13 1019.34,2933.28 1010.99,2919.78C997.979,2898.76 995.263,2878.37 996.371,2860.16C998.36,2827.45 1006.26,2808.57 1016.96,2790.99C1051.03,2735.02 1065.99,2679.89 1070.4,2654.03C1071.78,2645.96 1075.75,2630.38 1082.32,2630.38C1088.88,2630.38 1092.81,2645.69 1094.24,2654.03C1098.65,2679.89 1113.61,2735.02 1147.68,2790.99C1158.38,2808.57 1166.28,2827.45 1168.27,2860.16C1169.38,2878.37 1166.66,2898.76 1153.65,2919.78Z" style="fill:rgb(252,248,244);"/>
                        </g>
                    </g>
                    <g id="crt" transform="matrix(0.413291,0.0218812,-0.076474,0.118253,917.199,45.2754)">
                        <g transform="matrix(1.33121,0,0,1.09894,-274.858,-18.2717)">
                            <path d="M973.948,340.395L973.948,706.484C973.948,711.555 970.55,715.671 966.364,715.671L558.357,715.671C554.171,715.671 550.773,711.555 550.773,706.484L550.773,340.395C550.773,335.325 554.171,331.208 558.357,331.208L966.364,331.208C970.55,331.208 973.948,335.325 973.948,340.395ZM566.358,519.767C566.283,528.075 569.82,612.192 571.626,622.654C574.213,637.641 578.27,671.684 586.344,678.033C594.741,684.637 641.969,688.436 657.687,688.881C663.802,689.054 722.4,691.734 762.361,690.665C802.322,691.734 860.921,689.054 867.035,688.881C882.753,688.436 929.981,684.637 938.378,678.033C946.452,671.684 950.216,638.401 953.097,623.478C955.251,612.319 958.364,541.599 958.364,519.767C958.364,509.825 954.871,425.647 953.097,416.881C950.083,401.989 946.452,367.851 938.378,361.501C929.981,354.897 882.753,351.099 867.035,350.654C860.921,350.481 802.322,347.801 762.361,348.87C722.4,347.801 663.802,350.481 657.687,350.654C641.969,351.099 594.741,354.897 586.344,361.501C578.27,367.851 573.543,401.774 571.626,416.881C570.424,426.351 568.304,466.462 567.145,493.77C566.593,506.778 566.358,519.767 566.358,519.767Z" style="fill:rgb(219,234,219);"/>
                        </g>
                        <g transform="matrix(1.66988,0,0,1.67836,-313.316,-222.972)">
                            <path d="M463.239,379.858L453.163,386.965C453.163,386.965 444.794,391.319 444.794,396.8C444.794,402.281 444.195,447.439 444.195,447.439L444.195,483.639C444.195,488.511 443.034,491.064 447.676,494.072C452.318,497.081 463.239,505.56 463.239,505.56L463.239,379.858Z" style="fill:rgb(219,234,219);"/>
                        </g>
                        <g transform="matrix(1.33121,0,0,0.164781,-274.858,712.627)">
                            <path d="M973.948,412.103L973.948,634.776C973.948,679.423 969.461,715.671 963.935,715.671L560.786,715.671C555.26,715.671 550.773,679.423 550.773,634.776L550.773,412.103C550.773,367.456 555.26,331.208 560.786,331.208L963.935,331.208C969.461,331.208 973.948,367.456 973.948,412.103Z" style="fill:rgb(219,234,219);"/>
                        </g>
                        <g transform="matrix(1.10735,-0.0171993,0.0155301,0.999879,-66.2777,7.07872)">
                            <path d="M495.524,818.711L497.272,856.767C497.272,856.767 498.155,863.065 502.115,864.192C506.074,865.319 511.428,866.264 519.887,866.509C528.346,866.754 533.004,866.421 537.067,865.972C541.142,865.522 542.196,864.446 543.64,861.417C545.193,858.159 547.84,826.345 548.271,818.871L495.524,818.711Z" style="fill:rgb(219,234,219);"/>
                        </g>
                        <g transform="matrix(-1.10735,-0.0171993,-0.0155301,0.999879,1543.75,7.07872)">
                            <path d="M495.524,818.711L497.272,856.767C497.272,856.767 498.155,863.065 502.115,864.192C506.074,865.319 511.428,866.264 519.887,866.509C528.346,866.754 533.004,866.421 537.067,865.972C541.142,865.522 542.196,864.446 543.64,861.417C545.193,858.159 547.84,826.345 548.271,818.871L495.524,818.711Z" style="fill:rgb(219,234,219);"/>
                        </g>
                        <g transform="matrix(1.01057,0,0,0.111034,26.2194,740.761)">
                            <path d="M973.948,341.957L973.948,704.923C973.948,710.855 973.419,715.671 972.767,715.671L551.954,715.671C551.302,715.671 550.773,710.855 550.773,704.923L550.773,341.957C550.773,336.024 551.302,331.208 551.954,331.208L972.767,331.208C973.419,331.208 973.948,336.024 973.948,341.957Z" style="fill:rgb(251,247,236);fill-opacity:0.5;"/>
                        </g>
                        <g transform="matrix(0.254217,0,0,0.111034,329.52,740.761)">
                            <path d="M973.948,341.957L973.948,704.923C973.948,710.855 971.845,715.671 969.254,715.671L555.467,715.671C552.876,715.671 550.773,710.855 550.773,704.923L550.773,341.957C550.773,336.024 552.876,331.208 555.467,331.208L969.254,331.208C971.845,331.208 973.948,336.024 973.948,341.957Z" style="fill:rgb(251,247,236);fill-opacity:0.5;"/>
                        </g>
                        <g transform="matrix(0.845235,0,0,0.845235,79.2126,119.874)">
                            <path d="M511.676,793.038L511.676,813.631C511.676,814.78 510.743,815.713 509.594,815.713L489.839,815.713C488.69,815.713 487.757,814.78 487.757,813.631L487.757,793.038C487.757,791.889 488.69,790.956 489.839,790.956L509.594,790.956C510.743,790.956 511.676,791.889 511.676,793.038Z" style="fill:rgb(252,248,244);"/>
                        </g>
                        <g transform="matrix(0.845235,0,0,0.845235,115.326,119.874)">
                            <path d="M511.676,793.038L511.676,813.631C511.676,814.78 510.743,815.713 509.594,815.713L489.839,815.713C488.69,815.713 487.757,814.78 487.757,813.631L487.757,793.038C487.757,791.889 488.69,790.956 489.839,790.956L509.594,790.956C510.743,790.956 511.676,791.889 511.676,793.038Z" style="fill:rgb(252,248,244);"/>
                        </g>
                        <g transform="matrix(0.845235,0,0,0.845235,555.713,119.874)">
                            <path d="M511.676,802.916L511.676,803.754C511.676,810.354 506.317,815.713 499.716,815.713C493.116,815.713 487.757,810.354 487.757,803.754L487.757,802.916C487.757,796.315 493.116,790.956 499.716,790.956C506.317,790.956 511.676,796.315 511.676,802.916Z" style="fill:rgb(252,248,244);"/>
                        </g>
                        <g transform="matrix(0.845235,0,0,0.845235,525.713,119.874)">
                            <path d="M511.676,802.916L511.676,803.754C511.676,810.354 506.317,815.713 499.716,815.713C493.116,815.713 487.757,810.354 487.757,803.754L487.757,802.916C487.757,796.315 493.116,790.956 499.716,790.956C506.317,790.956 511.676,796.315 511.676,802.916Z" style="fill:rgb(252,248,244);"/>
                        </g>
                        <g transform="matrix(0.845235,0,0,0.845235,495.713,119.874)">
                            <path d="M511.676,802.916L511.676,803.754C511.676,810.354 506.317,815.713 499.716,815.713C493.116,815.713 487.757,810.354 487.757,803.754L487.757,802.916C487.757,796.315 493.116,790.956 499.716,790.956C506.317,790.956 511.676,796.315 511.676,802.916Z" style="fill:rgb(252,248,244);"/>
                        </g>
                    </g>
                    <g id="Pink-Dogwood-Flour1" serif:id="Pink Dogwood Flour" transform="matrix(0.458548,-0.0180637,0.0577966,0.120115,721.502,81.8042)">
                        <g transform="matrix(2.32188,0,0,2.53622,-948.765,-6975.15)">
                            <circle cx="638.709" cy="2939" r="20.99" style="fill:rgb(252,248,244);stroke:rgb(252,248,244);stroke-width:2.23px;"/>
                        </g>
                        <g transform="matrix(0.740299,-1.5192e-32,4.32562e-33,0.868104,-278.136,-2037.69)">
                            <g id="Pink-Dogwood-Petal4" serif:id="Pink Dogwood Petal">
                                <path d="M1097.37,2892.17C1097.27,2892.66 1097.17,2892.92 1097.08,2892.92C1094.41,2892.92 1084.56,2865.68 1060.79,2852.97C1052.02,2848.27 1037.28,2836.22 1028.28,2823.75C1015.93,2806.65 1010.3,2788.03 1008.48,2779.72C1000.13,2741.52 1004.34,2720.49 1013.24,2707.65C1021.73,2695.39 1038.52,2686.23 1050.65,2683.14C1062.78,2680.05 1071.6,2679.32 1075.79,2679.31C1079.99,2679.29 1083.91,2679.28 1086.63,2682.68C1089.34,2686.07 1091,2689.01 1097.08,2689.01C1097.18,2689.01 1097.27,2689.07 1097.37,2689.17C1097.46,2689.07 1097.56,2689.01 1097.65,2689.01C1103.73,2689.01 1105.39,2686.07 1108.11,2682.68C1110.82,2679.28 1114.75,2679.29 1118.94,2679.31C1123.13,2679.32 1131.95,2680.05 1144.08,2683.14C1156.21,2686.23 1173,2695.39 1181.5,2707.65C1190.4,2720.49 1194.6,2741.52 1186.25,2779.72C1184.43,2788.03 1178.8,2806.65 1166.46,2823.75C1157.45,2836.22 1142.71,2848.27 1133.94,2852.97C1110.17,2865.68 1100.33,2892.92 1097.65,2892.92C1097.56,2892.92 1097.46,2892.66 1097.37,2892.17Z" style="fill:rgb(219,234,219);"/>
                            </g>
                        </g>
                        <g transform="matrix(4.53303e-17,0.808637,-0.79474,5.3156e-17,2838.06,-408.574)">
                            <g id="Pink-Dogwood-Petal5" serif:id="Pink Dogwood Petal">
                                <path d="M1097.37,2892.17C1097.27,2892.66 1097.17,2892.92 1097.08,2892.92C1094.41,2892.92 1084.56,2865.68 1060.79,2852.97C1052.02,2848.27 1037.28,2836.22 1028.28,2823.75C1015.93,2806.65 1010.3,2788.03 1008.48,2779.72C1000.13,2741.52 1004.34,2720.49 1013.24,2707.65C1021.73,2695.39 1038.52,2686.23 1050.65,2683.14C1062.78,2680.05 1071.6,2679.32 1075.79,2679.31C1079.99,2679.29 1083.91,2679.28 1086.63,2682.68C1089.34,2686.07 1091,2689.01 1097.08,2689.01C1097.18,2689.01 1097.27,2689.07 1097.37,2689.17C1097.46,2689.07 1097.56,2689.01 1097.65,2689.01C1103.73,2689.01 1105.39,2686.07 1108.11,2682.68C1110.82,2679.28 1114.75,2679.29 1118.94,2679.31C1123.13,2679.32 1131.95,2680.05 1144.08,2683.14C1156.21,2686.23 1173,2695.39 1181.5,2707.65C1190.4,2720.49 1194.6,2741.52 1186.25,2779.72C1184.43,2788.03 1178.8,2806.65 1166.46,2823.75C1157.45,2836.22 1142.71,2848.27 1133.94,2852.97C1110.17,2865.68 1100.33,2892.92 1097.65,2892.92C1097.56,2892.92 1097.46,2892.66 1097.37,2892.17Z" style="fill:rgb(219,234,219);"/>
                            </g>
                        </g>
                        <g transform="matrix(-0.740299,-9.90295e-17,9.73276e-17,-0.868104,1346.62,2995.29)">
                            <g id="Pink-Dogwood-Petal6" serif:id="Pink Dogwood Petal">
                                <path d="M1097.37,2892.17C1097.27,2892.66 1097.17,2892.92 1097.08,2892.92C1094.41,2892.92 1084.56,2865.68 1060.79,2852.97C1052.02,2848.27 1037.28,2836.22 1028.28,2823.75C1015.93,2806.65 1010.3,2788.03 1008.48,2779.72C1000.13,2741.52 1004.34,2720.49 1013.24,2707.65C1021.73,2695.39 1038.52,2686.23 1050.65,2683.14C1062.78,2680.05 1071.6,2679.32 1075.79,2679.31C1079.99,2679.29 1083.91,2679.28 1086.63,2682.68C1089.34,2686.07 1091,2689.01 1097.08,2689.01C1097.18,2689.01 1097.27,2689.07 1097.37,2689.17C1097.46,2689.07 1097.56,2689.01 1097.65,2689.01C1103.73,2689.01 1105.39,2686.07 1108.11,2682.68C1110.82,2679.28 1114.75,2679.29 1118.94,2679.31C1123.13,2679.32 1131.95,2680.05 1144.08,2683.14C1156.21,2686.23 1173,2695.39 1181.5,2707.65C1190.4,2720.49 1194.6,2741.52 1186.25,2779.72C1184.43,2788.03 1178.8,2806.65 1166.46,2823.75C1157.45,2836.22 1142.71,2848.27 1133.94,2852.97C1110.17,2865.68 1100.33,2892.92 1097.65,2892.92C1097.56,2892.92 1097.46,2892.66 1097.37,2892.17Z" style="fill:rgb(219,234,219);"/>
                            </g>
                        </g>
                        <g transform="matrix(4.53303e-17,-0.808637,0.79474,5.3156e-17,-1769.58,1366.17)">
                            <g id="Pink-Dogwood-Petal7" serif:id="Pink Dogwood Petal">
                                <path d="M1097.37,2892.17C1097.27,2892.66 1097.17,2892.92 1097.08,2892.92C1094.41,2892.92 1084.56,2865.68 1060.79,2852.97C1052.02,2848.27 1037.28,2836.22 1028.28,2823.75C1015.93,2806.65 1010.3,2788.03 1008.48,2779.72C1000.13,2741.52 1004.34,2720.49 1013.24,2707.65C1021.73,2695.39 1038.52,2686.23 1050.65,2683.14C1062.78,2680.05 1071.6,2679.32 1075.79,2679.31C1079.99,2679.29 1083.91,2679.28 1086.63,2682.68C1089.34,2686.07 1091,2689.01 1097.08,2689.01C1097.18,2689.01 1097.27,2689.07 1097.37,2689.17C1097.46,2689.07 1097.56,2689.01 1097.65,2689.01C1103.73,2689.01 1105.39,2686.07 1108.11,2682.68C1110.82,2679.28 1114.75,2679.29 1118.94,2679.31C1123.13,2679.32 1131.95,2680.05 1144.08,2683.14C1156.21,2686.23 1173,2695.39 1181.5,2707.65C1190.4,2720.49 1194.6,2741.52 1186.25,2779.72C1184.43,2788.03 1178.8,2806.65 1166.46,2823.75C1157.45,2836.22 1142.71,2848.27 1133.94,2852.97C1110.17,2865.68 1100.33,2892.92 1097.65,2892.92C1097.56,2892.92 1097.46,2892.66 1097.37,2892.17Z" style="fill:rgb(219,234,219);"/>
                            </g>
                        </g>
                        <g transform="matrix(1.61363,0,0,1.76258,-496.395,-4701.43)">
                            <circle cx="638.709" cy="2939" r="20.99" style="fill:rgb(252,248,244);stroke:rgb(252,248,244);stroke-width:4.6px;"/>
                        </g>
                    </g>
                    <g id="Pink-Dogwood-Flour2" serif:id="Pink Dogwood Flour" transform="matrix(0.440188,-0.000311058,0.000995262,0.115305,895.26,119.717)">
                        <g transform="matrix(2.32188,0,0,2.53622,-948.765,-6975.15)">
                            <circle cx="638.709" cy="2939" r="20.99" style="fill:rgb(252,248,244);stroke:rgb(252,248,244);stroke-width:2.23px;"/>
                        </g>
                        <g transform="matrix(0.740299,-1.5192e-32,4.32562e-33,0.868104,-278.136,-2037.69)">
                            <g id="Pink-Dogwood-Petal8" serif:id="Pink Dogwood Petal">
                                <path d="M1097.37,2892.17C1097.27,2892.66 1097.17,2892.92 1097.08,2892.92C1094.41,2892.92 1084.56,2865.68 1060.79,2852.97C1052.02,2848.27 1037.28,2836.22 1028.28,2823.75C1015.93,2806.65 1010.3,2788.03 1008.48,2779.72C1000.13,2741.52 1004.34,2720.49 1013.24,2707.65C1021.73,2695.39 1038.52,2686.23 1050.65,2683.14C1062.78,2680.05 1071.6,2679.32 1075.79,2679.31C1079.99,2679.29 1083.91,2679.28 1086.63,2682.68C1089.34,2686.07 1091,2689.01 1097.08,2689.01C1097.18,2689.01 1097.27,2689.07 1097.37,2689.17C1097.46,2689.07 1097.56,2689.01 1097.65,2689.01C1103.73,2689.01 1105.39,2686.07 1108.11,2682.68C1110.82,2679.28 1114.75,2679.29 1118.94,2679.31C1123.13,2679.32 1131.95,2680.05 1144.08,2683.14C1156.21,2686.23 1173,2695.39 1181.5,2707.65C1190.4,2720.49 1194.6,2741.52 1186.25,2779.72C1184.43,2788.03 1178.8,2806.65 1166.46,2823.75C1157.45,2836.22 1142.71,2848.27 1133.94,2852.97C1110.17,2865.68 1100.33,2892.92 1097.65,2892.92C1097.56,2892.92 1097.46,2892.66 1097.37,2892.17Z" style="fill:rgb(219,234,219);"/>
                            </g>
                        </g>
                        <g transform="matrix(4.53303e-17,0.808637,-0.79474,5.3156e-17,2838.06,-408.574)">
                            <g id="Pink-Dogwood-Petal9" serif:id="Pink Dogwood Petal">
                                <path d="M1097.37,2892.17C1097.27,2892.66 1097.17,2892.92 1097.08,2892.92C1094.41,2892.92 1084.56,2865.68 1060.79,2852.97C1052.02,2848.27 1037.28,2836.22 1028.28,2823.75C1015.93,2806.65 1010.3,2788.03 1008.48,2779.72C1000.13,2741.52 1004.34,2720.49 1013.24,2707.65C1021.73,2695.39 1038.52,2686.23 1050.65,2683.14C1062.78,2680.05 1071.6,2679.32 1075.79,2679.31C1079.99,2679.29 1083.91,2679.28 1086.63,2682.68C1089.34,2686.07 1091,2689.01 1097.08,2689.01C1097.18,2689.01 1097.27,2689.07 1097.37,2689.17C1097.46,2689.07 1097.56,2689.01 1097.65,2689.01C1103.73,2689.01 1105.39,2686.07 1108.11,2682.68C1110.82,2679.28 1114.75,2679.29 1118.94,2679.31C1123.13,2679.32 1131.95,2680.05 1144.08,2683.14C1156.21,2686.23 1173,2695.39 1181.5,2707.65C1190.4,2720.49 1194.6,2741.52 1186.25,2779.72C1184.43,2788.03 1178.8,2806.65 1166.46,2823.75C1157.45,2836.22 1142.71,2848.27 1133.94,2852.97C1110.17,2865.68 1100.33,2892.92 1097.65,2892.92C1097.56,2892.92 1097.46,2892.66 1097.37,2892.17Z" style="fill:rgb(219,234,219);"/>
                            </g>
                        </g>
                        <g transform="matrix(-0.740299,-9.90295e-17,9.73276e-17,-0.868104,1346.62,2995.29)">
                            <g id="Pink-Dogwood-Petal10" serif:id="Pink Dogwood Petal">
                                <path d="M1097.37,2892.17C1097.27,2892.66 1097.17,2892.92 1097.08,2892.92C1094.41,2892.92 1084.56,2865.68 1060.79,2852.97C1052.02,2848.27 1037.28,2836.22 1028.28,2823.75C1015.93,2806.65 1010.3,2788.03 1008.48,2779.72C1000.13,2741.52 1004.34,2720.49 1013.24,2707.65C1021.73,2695.39 1038.52,2686.23 1050.65,2683.14C1062.78,2680.05 1071.6,2679.32 1075.79,2679.31C1079.99,2679.29 1083.91,2679.28 1086.63,2682.68C1089.34,2686.07 1091,2689.01 1097.08,2689.01C1097.18,2689.01 1097.27,2689.07 1097.37,2689.17C1097.46,2689.07 1097.56,2689.01 1097.65,2689.01C1103.73,2689.01 1105.39,2686.07 1108.11,2682.68C1110.82,2679.28 1114.75,2679.29 1118.94,2679.31C1123.13,2679.32 1131.95,2680.05 1144.08,2683.14C1156.21,2686.23 1173,2695.39 1181.5,2707.65C1190.4,2720.49 1194.6,2741.52 1186.25,2779.72C1184.43,2788.03 1178.8,2806.65 1166.46,2823.75C1157.45,2836.22 1142.71,2848.27 1133.94,2852.97C1110.17,2865.68 1100.33,2892.92 1097.65,2892.92C1097.56,2892.92 1097.46,2892.66 1097.37,2892.17Z" style="fill:rgb(219,234,219);"/>
                            </g>
                        </g>
                        <g transform="matrix(4.53303e-17,-0.808637,0.79474,5.3156e-17,-1769.58,1366.17)">
                            <g id="Pink-Dogwood-Petal11" serif:id="Pink Dogwood Petal">
                                <path d="M1097.37,2892.17C1097.27,2892.66 1097.17,2892.92 1097.08,2892.92C1094.41,2892.92 1084.56,2865.68 1060.79,2852.97C1052.02,2848.27 1037.28,2836.22 1028.28,2823.75C1015.93,2806.65 1010.3,2788.03 1008.48,2779.72C1000.13,2741.52 1004.34,2720.49 1013.24,2707.65C1021.73,2695.39 1038.52,2686.23 1050.65,2683.14C1062.78,2680.05 1071.6,2679.32 1075.79,2679.31C1079.99,2679.29 1083.91,2679.28 1086.63,2682.68C1089.34,2686.07 1091,2689.01 1097.08,2689.01C1097.18,2689.01 1097.27,2689.07 1097.37,2689.17C1097.46,2689.07 1097.56,2689.01 1097.65,2689.01C1103.73,2689.01 1105.39,2686.07 1108.11,2682.68C1110.82,2679.28 1114.75,2679.29 1118.94,2679.31C1123.13,2679.32 1131.95,2680.05 1144.08,2683.14C1156.21,2686.23 1173,2695.39 1181.5,2707.65C1190.4,2720.49 1194.6,2741.52 1186.25,2779.72C1184.43,2788.03 1178.8,2806.65 1166.46,2823.75C1157.45,2836.22 1142.71,2848.27 1133.94,2852.97C1110.17,2865.68 1100.33,2892.92 1097.65,2892.92C1097.56,2892.92 1097.46,2892.66 1097.37,2892.17Z" style="fill:rgb(219,234,219);"/>
                            </g>
                        </g>
                        <g transform="matrix(1.61363,0,0,1.76258,-496.395,-4701.43)">
                            <circle cx="638.709" cy="2939" r="20.99" style="fill:rgb(252,248,244);stroke:rgb(252,248,244);stroke-width:4.6px;"/>
                        </g>
                    </g>
                    <g id="Pink-Dogwood-Flour3" serif:id="Pink Dogwood Flour" transform="matrix(0.440188,-0.000311058,0.000995262,0.115305,895.26,119.717)">
                        <g transform="matrix(2.32188,0,0,2.53622,-948.765,-6975.15)">
                            <circle cx="638.709" cy="2939" r="20.99" style="fill:rgb(252,248,244);stroke:rgb(252,248,244);stroke-width:2.23px;"/>
                        </g>
                        <g transform="matrix(0.740299,-1.5192e-32,4.32562e-33,0.868104,-278.136,-2037.69)">
                            <g id="Pink-Dogwood-Petal12" serif:id="Pink Dogwood Petal">
                                <path d="M1097.37,2892.17C1097.27,2892.66 1097.17,2892.92 1097.08,2892.92C1094.41,2892.92 1084.56,2865.68 1060.79,2852.97C1052.02,2848.27 1037.28,2836.22 1028.28,2823.75C1015.93,2806.65 1010.3,2788.03 1008.48,2779.72C1000.13,2741.52 1004.34,2720.49 1013.24,2707.65C1021.73,2695.39 1038.52,2686.23 1050.65,2683.14C1062.78,2680.05 1071.6,2679.32 1075.79,2679.31C1079.99,2679.29 1083.91,2679.28 1086.63,2682.68C1089.34,2686.07 1091,2689.01 1097.08,2689.01C1097.18,2689.01 1097.27,2689.07 1097.37,2689.17C1097.46,2689.07 1097.56,2689.01 1097.65,2689.01C1103.73,2689.01 1105.39,2686.07 1108.11,2682.68C1110.82,2679.28 1114.75,2679.29 1118.94,2679.31C1123.13,2679.32 1131.95,2680.05 1144.08,2683.14C1156.21,2686.23 1173,2695.39 1181.5,2707.65C1190.4,2720.49 1194.6,2741.52 1186.25,2779.72C1184.43,2788.03 1178.8,2806.65 1166.46,2823.75C1157.45,2836.22 1142.71,2848.27 1133.94,2852.97C1110.17,2865.68 1100.33,2892.92 1097.65,2892.92C1097.56,2892.92 1097.46,2892.66 1097.37,2892.17Z" style="fill:rgb(219,234,219);"/>
                            </g>
                        </g>
                        <g transform="matrix(4.53303e-17,0.808637,-0.79474,5.3156e-17,2838.06,-408.574)">
                            <g id="Pink-Dogwood-Petal13" serif:id="Pink Dogwood Petal">
                                <path d="M1097.37,2892.17C1097.27,2892.66 1097.17,2892.92 1097.08,2892.92C1094.41,2892.92 1084.56,2865.68 1060.79,2852.97C1052.02,2848.27 1037.28,2836.22 1028.28,2823.75C1015.93,2806.65 1010.3,2788.03 1008.48,2779.72C1000.13,2741.52 1004.34,2720.49 1013.24,2707.65C1021.73,2695.39 1038.52,2686.23 1050.65,2683.14C1062.78,2680.05 1071.6,2679.32 1075.79,2679.31C1079.99,2679.29 1083.91,2679.28 1086.63,2682.68C1089.34,2686.07 1091,2689.01 1097.08,2689.01C1097.18,2689.01 1097.27,2689.07 1097.37,2689.17C1097.46,2689.07 1097.56,2689.01 1097.65,2689.01C1103.73,2689.01 1105.39,2686.07 1108.11,2682.68C1110.82,2679.28 1114.75,2679.29 1118.94,2679.31C1123.13,2679.32 1131.95,2680.05 1144.08,2683.14C1156.21,2686.23 1173,2695.39 1181.5,2707.65C1190.4,2720.49 1194.6,2741.52 1186.25,2779.72C1184.43,2788.03 1178.8,2806.65 1166.46,2823.75C1157.45,2836.22 1142.71,2848.27 1133.94,2852.97C1110.17,2865.68 1100.33,2892.92 1097.65,2892.92C1097.56,2892.92 1097.46,2892.66 1097.37,2892.17Z" style="fill:rgb(219,234,219);"/>
                            </g>
                        </g>
                        <g transform="matrix(-0.740299,-9.90295e-17,9.73276e-17,-0.868104,1346.62,2995.29)">
                            <g id="Pink-Dogwood-Petal14" serif:id="Pink Dogwood Petal">
                                <path d="M1097.37,2892.17C1097.27,2892.66 1097.17,2892.92 1097.08,2892.92C1094.41,2892.92 1084.56,2865.68 1060.79,2852.97C1052.02,2848.27 1037.28,2836.22 1028.28,2823.75C1015.93,2806.65 1010.3,2788.03 1008.48,2779.72C1000.13,2741.52 1004.34,2720.49 1013.24,2707.65C1021.73,2695.39 1038.52,2686.23 1050.65,2683.14C1062.78,2680.05 1071.6,2679.32 1075.79,2679.31C1079.99,2679.29 1083.91,2679.28 1086.63,2682.68C1089.34,2686.07 1091,2689.01 1097.08,2689.01C1097.18,2689.01 1097.27,2689.07 1097.37,2689.17C1097.46,2689.07 1097.56,2689.01 1097.65,2689.01C1103.73,2689.01 1105.39,2686.07 1108.11,2682.68C1110.82,2679.28 1114.75,2679.29 1118.94,2679.31C1123.13,2679.32 1131.95,2680.05 1144.08,2683.14C1156.21,2686.23 1173,2695.39 1181.5,2707.65C1190.4,2720.49 1194.6,2741.52 1186.25,2779.72C1184.43,2788.03 1178.8,2806.65 1166.46,2823.75C1157.45,2836.22 1142.71,2848.27 1133.94,2852.97C1110.17,2865.68 1100.33,2892.92 1097.65,2892.92C1097.56,2892.92 1097.46,2892.66 1097.37,2892.17Z" style="fill:rgb(219,234,219);"/>
                            </g>
                        </g>
                        <g transform="matrix(4.53303e-17,-0.808637,0.79474,5.3156e-17,-1769.58,1366.17)">
                            <g id="Pink-Dogwood-Petal15" serif:id="Pink Dogwood Petal">
                                <path d="M1097.37,2892.17C1097.27,2892.66 1097.17,2892.92 1097.08,2892.92C1094.41,2892.92 1084.56,2865.68 1060.79,2852.97C1052.02,2848.27 1037.28,2836.22 1028.28,2823.75C1015.93,2806.65 1010.3,2788.03 1008.48,2779.72C1000.13,2741.52 1004.34,2720.49 1013.24,2707.65C1021.73,2695.39 1038.52,2686.23 1050.65,2683.14C1062.78,2680.05 1071.6,2679.32 1075.79,2679.31C1079.99,2679.29 1083.91,2679.28 1086.63,2682.68C1089.34,2686.07 1091,2689.01 1097.08,2689.01C1097.18,2689.01 1097.27,2689.07 1097.37,2689.17C1097.46,2689.07 1097.56,2689.01 1097.65,2689.01C1103.73,2689.01 1105.39,2686.07 1108.11,2682.68C1110.82,2679.28 1114.75,2679.29 1118.94,2679.31C1123.13,2679.32 1131.95,2680.05 1144.08,2683.14C1156.21,2686.23 1173,2695.39 1181.5,2707.65C1190.4,2720.49 1194.6,2741.52 1186.25,2779.72C1184.43,2788.03 1178.8,2806.65 1166.46,2823.75C1157.45,2836.22 1142.71,2848.27 1133.94,2852.97C1110.17,2865.68 1100.33,2892.92 1097.65,2892.92C1097.56,2892.92 1097.46,2892.66 1097.37,2892.17Z" style="fill:rgb(219,234,219);"/>
                            </g>
                        </g>
                        <g transform="matrix(1.61363,0,0,1.76258,-496.395,-4701.43)">
                            <circle cx="638.709" cy="2939" r="20.99" style="fill:rgb(252,248,244);stroke:rgb(252,248,244);stroke-width:4.6px;"/>
                        </g>
                    </g>
                    <g id="Pink-Dogwood-Flour4" serif:id="Pink Dogwood Flour" transform="matrix(0.257158,0.034708,-0.111052,0.0673615,936.451,45.7397)">
                        <g transform="matrix(2.32188,0,0,2.53622,-948.765,-6975.15)">
                            <circle cx="638.709" cy="2939" r="20.99" style="fill:rgb(252,248,244);stroke:rgb(252,248,244);stroke-width:2.23px;"/>
                        </g>
                        <g transform="matrix(0.740299,-1.5192e-32,4.32562e-33,0.868104,-278.136,-2037.69)">
                            <g id="Pink-Dogwood-Petal16" serif:id="Pink Dogwood Petal">
                                <path d="M1097.37,2892.17C1097.27,2892.66 1097.17,2892.92 1097.08,2892.92C1094.41,2892.92 1084.56,2865.68 1060.79,2852.97C1052.02,2848.27 1037.28,2836.22 1028.28,2823.75C1015.93,2806.65 1010.3,2788.03 1008.48,2779.72C1000.13,2741.52 1004.34,2720.49 1013.24,2707.65C1021.73,2695.39 1038.52,2686.23 1050.65,2683.14C1062.78,2680.05 1071.6,2679.32 1075.79,2679.31C1079.99,2679.29 1083.91,2679.28 1086.63,2682.68C1089.34,2686.07 1091,2689.01 1097.08,2689.01C1097.18,2689.01 1097.27,2689.07 1097.37,2689.17C1097.46,2689.07 1097.56,2689.01 1097.65,2689.01C1103.73,2689.01 1105.39,2686.07 1108.11,2682.68C1110.82,2679.28 1114.75,2679.29 1118.94,2679.31C1123.13,2679.32 1131.95,2680.05 1144.08,2683.14C1156.21,2686.23 1173,2695.39 1181.5,2707.65C1190.4,2720.49 1194.6,2741.52 1186.25,2779.72C1184.43,2788.03 1178.8,2806.65 1166.46,2823.75C1157.45,2836.22 1142.71,2848.27 1133.94,2852.97C1110.17,2865.68 1100.33,2892.92 1097.65,2892.92C1097.56,2892.92 1097.46,2892.66 1097.37,2892.17Z" style="fill:rgb(219,234,219);"/>
                            </g>
                        </g>
                        <g transform="matrix(4.53303e-17,0.808637,-0.79474,5.3156e-17,2838.06,-408.574)">
                            <g id="Pink-Dogwood-Petal17" serif:id="Pink Dogwood Petal">
                                <path d="M1097.37,2892.17C1097.27,2892.66 1097.17,2892.92 1097.08,2892.92C1094.41,2892.92 1084.56,2865.68 1060.79,2852.97C1052.02,2848.27 1037.28,2836.22 1028.28,2823.75C1015.93,2806.65 1010.3,2788.03 1008.48,2779.72C1000.13,2741.52 1004.34,2720.49 1013.24,2707.65C1021.73,2695.39 1038.52,2686.23 1050.65,2683.14C1062.78,2680.05 1071.6,2679.32 1075.79,2679.31C1079.99,2679.29 1083.91,2679.28 1086.63,2682.68C1089.34,2686.07 1091,2689.01 1097.08,2689.01C1097.18,2689.01 1097.27,2689.07 1097.37,2689.17C1097.46,2689.07 1097.56,2689.01 1097.65,2689.01C1103.73,2689.01 1105.39,2686.07 1108.11,2682.68C1110.82,2679.28 1114.75,2679.29 1118.94,2679.31C1123.13,2679.32 1131.95,2680.05 1144.08,2683.14C1156.21,2686.23 1173,2695.39 1181.5,2707.65C1190.4,2720.49 1194.6,2741.52 1186.25,2779.72C1184.43,2788.03 1178.8,2806.65 1166.46,2823.75C1157.45,2836.22 1142.71,2848.27 1133.94,2852.97C1110.17,2865.68 1100.33,2892.92 1097.65,2892.92C1097.56,2892.92 1097.46,2892.66 1097.37,2892.17Z" style="fill:rgb(219,234,219);"/>
                            </g>
                        </g>
                        <g transform="matrix(-0.740299,-9.90295e-17,9.73276e-17,-0.868104,1346.62,2995.29)">
                            <g id="Pink-Dogwood-Petal18" serif:id="Pink Dogwood Petal">
                                <path d="M1097.37,2892.17C1097.27,2892.66 1097.17,2892.92 1097.08,2892.92C1094.41,2892.92 1084.56,2865.68 1060.79,2852.97C1052.02,2848.27 1037.28,2836.22 1028.28,2823.75C1015.93,2806.65 1010.3,2788.03 1008.48,2779.72C1000.13,2741.52 1004.34,2720.49 1013.24,2707.65C1021.73,2695.39 1038.52,2686.23 1050.65,2683.14C1062.78,2680.05 1071.6,2679.32 1075.79,2679.31C1079.99,2679.29 1083.91,2679.28 1086.63,2682.68C1089.34,2686.07 1091,2689.01 1097.08,2689.01C1097.18,2689.01 1097.27,2689.07 1097.37,2689.17C1097.46,2689.07 1097.56,2689.01 1097.65,2689.01C1103.73,2689.01 1105.39,2686.07 1108.11,2682.68C1110.82,2679.28 1114.75,2679.29 1118.94,2679.31C1123.13,2679.32 1131.95,2680.05 1144.08,2683.14C1156.21,2686.23 1173,2695.39 1181.5,2707.65C1190.4,2720.49 1194.6,2741.52 1186.25,2779.72C1184.43,2788.03 1178.8,2806.65 1166.46,2823.75C1157.45,2836.22 1142.71,2848.27 1133.94,2852.97C1110.17,2865.68 1100.33,2892.92 1097.65,2892.92C1097.56,2892.92 1097.46,2892.66 1097.37,2892.17Z" style="fill:rgb(219,234,219);"/>
                            </g>
                        </g>
                        <g transform="matrix(4.53303e-17,-0.808637,0.79474,5.3156e-17,-1769.58,1366.17)">
                            <g id="Pink-Dogwood-Petal19" serif:id="Pink Dogwood Petal">
                                <path d="M1097.37,2892.17C1097.27,2892.66 1097.17,2892.92 1097.08,2892.92C1094.41,2892.92 1084.56,2865.68 1060.79,2852.97C1052.02,2848.27 1037.28,2836.22 1028.28,2823.75C1015.93,2806.65 1010.3,2788.03 1008.48,2779.72C1000.13,2741.52 1004.34,2720.49 1013.24,2707.65C1021.73,2695.39 1038.52,2686.23 1050.65,2683.14C1062.78,2680.05 1071.6,2679.32 1075.79,2679.31C1079.99,2679.29 1083.91,2679.28 1086.63,2682.68C1089.34,2686.07 1091,2689.01 1097.08,2689.01C1097.18,2689.01 1097.27,2689.07 1097.37,2689.17C1097.46,2689.07 1097.56,2689.01 1097.65,2689.01C1103.73,2689.01 1105.39,2686.07 1108.11,2682.68C1110.82,2679.28 1114.75,2679.29 1118.94,2679.31C1123.13,2679.32 1131.95,2680.05 1144.08,2683.14C1156.21,2686.23 1173,2695.39 1181.5,2707.65C1190.4,2720.49 1194.6,2741.52 1186.25,2779.72C1184.43,2788.03 1178.8,2806.65 1166.46,2823.75C1157.45,2836.22 1142.71,2848.27 1133.94,2852.97C1110.17,2865.68 1100.33,2892.92 1097.65,2892.92C1097.56,2892.92 1097.46,2892.66 1097.37,2892.17Z" style="fill:rgb(219,234,219);"/>
                            </g>
                        </g>
                        <g transform="matrix(1.61363,0,0,1.76258,-496.395,-4701.43)">
                            <circle cx="638.709" cy="2939" r="20.99" style="fill:rgb(252,248,244);stroke:rgb(252,248,244);stroke-width:4.6px;"/>
                        </g>
                    </g>
                    <g id="Pink-Dogwood-Flour5" serif:id="Pink Dogwood Flour" transform="matrix(0.257158,0.034708,-0.111052,0.0673615,971.142,161.045)">
                        <g transform="matrix(2.32188,0,0,2.53622,-948.765,-6975.15)">
                            <circle cx="638.709" cy="2939" r="20.99" style="fill:rgb(252,248,244);stroke:rgb(252,248,244);stroke-width:2.23px;"/>
                        </g>
                        <g transform="matrix(0.740299,-1.5192e-32,4.32562e-33,0.868104,-278.136,-2037.69)">
                            <g id="Pink-Dogwood-Petal20" serif:id="Pink Dogwood Petal">
                                <path d="M1097.37,2892.17C1097.27,2892.66 1097.17,2892.92 1097.08,2892.92C1094.41,2892.92 1084.56,2865.68 1060.79,2852.97C1052.02,2848.27 1037.28,2836.22 1028.28,2823.75C1015.93,2806.65 1010.3,2788.03 1008.48,2779.72C1000.13,2741.52 1004.34,2720.49 1013.24,2707.65C1021.73,2695.39 1038.52,2686.23 1050.65,2683.14C1062.78,2680.05 1071.6,2679.32 1075.79,2679.31C1079.99,2679.29 1083.91,2679.28 1086.63,2682.68C1089.34,2686.07 1091,2689.01 1097.08,2689.01C1097.18,2689.01 1097.27,2689.07 1097.37,2689.17C1097.46,2689.07 1097.56,2689.01 1097.65,2689.01C1103.73,2689.01 1105.39,2686.07 1108.11,2682.68C1110.82,2679.28 1114.75,2679.29 1118.94,2679.31C1123.13,2679.32 1131.95,2680.05 1144.08,2683.14C1156.21,2686.23 1173,2695.39 1181.5,2707.65C1190.4,2720.49 1194.6,2741.52 1186.25,2779.72C1184.43,2788.03 1178.8,2806.65 1166.46,2823.75C1157.45,2836.22 1142.71,2848.27 1133.94,2852.97C1110.17,2865.68 1100.33,2892.92 1097.65,2892.92C1097.56,2892.92 1097.46,2892.66 1097.37,2892.17Z" style="fill:rgb(219,234,219);"/>
                            </g>
                        </g>
                        <g transform="matrix(4.53303e-17,0.808637,-0.79474,5.3156e-17,2838.06,-408.574)">
                            <g id="Pink-Dogwood-Petal21" serif:id="Pink Dogwood Petal">
                                <path d="M1097.37,2892.17C1097.27,2892.66 1097.17,2892.92 1097.08,2892.92C1094.41,2892.92 1084.56,2865.68 1060.79,2852.97C1052.02,2848.27 1037.28,2836.22 1028.28,2823.75C1015.93,2806.65 1010.3,2788.03 1008.48,2779.72C1000.13,2741.52 1004.34,2720.49 1013.24,2707.65C1021.73,2695.39 1038.52,2686.23 1050.65,2683.14C1062.78,2680.05 1071.6,2679.32 1075.79,2679.31C1079.99,2679.29 1083.91,2679.28 1086.63,2682.68C1089.34,2686.07 1091,2689.01 1097.08,2689.01C1097.18,2689.01 1097.27,2689.07 1097.37,2689.17C1097.46,2689.07 1097.56,2689.01 1097.65,2689.01C1103.73,2689.01 1105.39,2686.07 1108.11,2682.68C1110.82,2679.28 1114.75,2679.29 1118.94,2679.31C1123.13,2679.32 1131.95,2680.05 1144.08,2683.14C1156.21,2686.23 1173,2695.39 1181.5,2707.65C1190.4,2720.49 1194.6,2741.52 1186.25,2779.72C1184.43,2788.03 1178.8,2806.65 1166.46,2823.75C1157.45,2836.22 1142.71,2848.27 1133.94,2852.97C1110.17,2865.68 1100.33,2892.92 1097.65,2892.92C1097.56,2892.92 1097.46,2892.66 1097.37,2892.17Z" style="fill:rgb(219,234,219);"/>
                            </g>
                        </g>
                        <g transform="matrix(-0.740299,-9.90295e-17,9.73276e-17,-0.868104,1346.62,2995.29)">
                            <g id="Pink-Dogwood-Petal22" serif:id="Pink Dogwood Petal">
                                <path d="M1097.37,2892.17C1097.27,2892.66 1097.17,2892.92 1097.08,2892.92C1094.41,2892.92 1084.56,2865.68 1060.79,2852.97C1052.02,2848.27 1037.28,2836.22 1028.28,2823.75C1015.93,2806.65 1010.3,2788.03 1008.48,2779.72C1000.13,2741.52 1004.34,2720.49 1013.24,2707.65C1021.73,2695.39 1038.52,2686.23 1050.65,2683.14C1062.78,2680.05 1071.6,2679.32 1075.79,2679.31C1079.99,2679.29 1083.91,2679.28 1086.63,2682.68C1089.34,2686.07 1091,2689.01 1097.08,2689.01C1097.18,2689.01 1097.27,2689.07 1097.37,2689.17C1097.46,2689.07 1097.56,2689.01 1097.65,2689.01C1103.73,2689.01 1105.39,2686.07 1108.11,2682.68C1110.82,2679.28 1114.75,2679.29 1118.94,2679.31C1123.13,2679.32 1131.95,2680.05 1144.08,2683.14C1156.21,2686.23 1173,2695.39 1181.5,2707.65C1190.4,2720.49 1194.6,2741.52 1186.25,2779.72C1184.43,2788.03 1178.8,2806.65 1166.46,2823.75C1157.45,2836.22 1142.71,2848.27 1133.94,2852.97C1110.17,2865.68 1100.33,2892.92 1097.65,2892.92C1097.56,2892.92 1097.46,2892.66 1097.37,2892.17Z" style="fill:rgb(219,234,219);"/>
                            </g>
                        </g>
                        <g transform="matrix(4.53303e-17,-0.808637,0.79474,5.3156e-17,-1769.58,1366.17)">
                            <g id="Pink-Dogwood-Petal23" serif:id="Pink Dogwood Petal">
                                <path d="M1097.37,2892.17C1097.27,2892.66 1097.17,2892.92 1097.08,2892.92C1094.41,2892.92 1084.56,2865.68 1060.79,2852.97C1052.02,2848.27 1037.28,2836.22 1028.28,2823.75C1015.93,2806.65 1010.3,2788.03 1008.48,2779.72C1000.13,2741.52 1004.34,2720.49 1013.24,2707.65C1021.73,2695.39 1038.52,2686.23 1050.65,2683.14C1062.78,2680.05 1071.6,2679.32 1075.79,2679.31C1079.99,2679.29 1083.91,2679.28 1086.63,2682.68C1089.34,2686.07 1091,2689.01 1097.08,2689.01C1097.18,2689.01 1097.27,2689.07 1097.37,2689.17C1097.46,2689.07 1097.56,2689.01 1097.65,2689.01C1103.73,2689.01 1105.39,2686.07 1108.11,2682.68C1110.82,2679.28 1114.75,2679.29 1118.94,2679.31C1123.13,2679.32 1131.95,2680.05 1144.08,2683.14C1156.21,2686.23 1173,2695.39 1181.5,2707.65C1190.4,2720.49 1194.6,2741.52 1186.25,2779.72C1184.43,2788.03 1178.8,2806.65 1166.46,2823.75C1157.45,2836.22 1142.71,2848.27 1133.94,2852.97C1110.17,2865.68 1100.33,2892.92 1097.65,2892.92C1097.56,2892.92 1097.46,2892.66 1097.37,2892.17Z" style="fill:rgb(219,234,219);"/>
                            </g>
                        </g>
                        <g transform="matrix(1.61363,0,0,1.76258,-496.395,-4701.43)">
                            <circle cx="638.709" cy="2939" r="20.99" style="fill:rgb(252,248,244);stroke:rgb(252,248,244);stroke-width:4.6px;"/>
                        </g>
                    </g>
                    <g id="Pink-Dogwood-Flour6" serif:id="Pink Dogwood Flour" transform="matrix(0.24071,-0.000877302,0.00280702,0.0630529,1027.4,55.5005)">
                        <g transform="matrix(2.32188,0,0,2.53622,-948.765,-6975.15)">
                            <circle cx="638.709" cy="2939" r="20.99" style="fill:rgb(252,248,244);stroke:rgb(252,248,244);stroke-width:2.23px;"/>
                        </g>
                        <g transform="matrix(0.740299,-1.5192e-32,4.32562e-33,0.868104,-278.136,-2037.69)">
                            <g id="Pink-Dogwood-Petal24" serif:id="Pink Dogwood Petal">
                                <path d="M1097.37,2892.17C1097.27,2892.66 1097.17,2892.92 1097.08,2892.92C1094.41,2892.92 1084.56,2865.68 1060.79,2852.97C1052.02,2848.27 1037.28,2836.22 1028.28,2823.75C1015.93,2806.65 1010.3,2788.03 1008.48,2779.72C1000.13,2741.52 1004.34,2720.49 1013.24,2707.65C1021.73,2695.39 1038.52,2686.23 1050.65,2683.14C1062.78,2680.05 1071.6,2679.32 1075.79,2679.31C1079.99,2679.29 1083.91,2679.28 1086.63,2682.68C1089.34,2686.07 1091,2689.01 1097.08,2689.01C1097.18,2689.01 1097.27,2689.07 1097.37,2689.17C1097.46,2689.07 1097.56,2689.01 1097.65,2689.01C1103.73,2689.01 1105.39,2686.07 1108.11,2682.68C1110.82,2679.28 1114.75,2679.29 1118.94,2679.31C1123.13,2679.32 1131.95,2680.05 1144.08,2683.14C1156.21,2686.23 1173,2695.39 1181.5,2707.65C1190.4,2720.49 1194.6,2741.52 1186.25,2779.72C1184.43,2788.03 1178.8,2806.65 1166.46,2823.75C1157.45,2836.22 1142.71,2848.27 1133.94,2852.97C1110.17,2865.68 1100.33,2892.92 1097.65,2892.92C1097.56,2892.92 1097.46,2892.66 1097.37,2892.17Z" style="fill:rgb(219,234,219);"/>
                            </g>
                        </g>
                        <g transform="matrix(4.53303e-17,0.808637,-0.79474,5.3156e-17,2838.06,-408.574)">
                            <g id="Pink-Dogwood-Petal25" serif:id="Pink Dogwood Petal">
                                <path d="M1097.37,2892.17C1097.27,2892.66 1097.17,2892.92 1097.08,2892.92C1094.41,2892.92 1084.56,2865.68 1060.79,2852.97C1052.02,2848.27 1037.28,2836.22 1028.28,2823.75C1015.93,2806.65 1010.3,2788.03 1008.48,2779.72C1000.13,2741.52 1004.34,2720.49 1013.24,2707.65C1021.73,2695.39 1038.52,2686.23 1050.65,2683.14C1062.78,2680.05 1071.6,2679.32 1075.79,2679.31C1079.99,2679.29 1083.91,2679.28 1086.63,2682.68C1089.34,2686.07 1091,2689.01 1097.08,2689.01C1097.18,2689.01 1097.27,2689.07 1097.37,2689.17C1097.46,2689.07 1097.56,2689.01 1097.65,2689.01C1103.73,2689.01 1105.39,2686.07 1108.11,2682.68C1110.82,2679.28 1114.75,2679.29 1118.94,2679.31C1123.13,2679.32 1131.95,2680.05 1144.08,2683.14C1156.21,2686.23 1173,2695.39 1181.5,2707.65C1190.4,2720.49 1194.6,2741.52 1186.25,2779.72C1184.43,2788.03 1178.8,2806.65 1166.46,2823.75C1157.45,2836.22 1142.71,2848.27 1133.94,2852.97C1110.17,2865.68 1100.33,2892.92 1097.65,2892.92C1097.56,2892.92 1097.46,2892.66 1097.37,2892.17Z" style="fill:rgb(219,234,219);"/>
                            </g>
                        </g>
                        <g transform="matrix(-0.740299,-9.90295e-17,9.73276e-17,-0.868104,1346.62,2995.29)">
                            <g id="Pink-Dogwood-Petal26" serif:id="Pink Dogwood Petal">
                                <path d="M1097.37,2892.17C1097.27,2892.66 1097.17,2892.92 1097.08,2892.92C1094.41,2892.92 1084.56,2865.68 1060.79,2852.97C1052.02,2848.27 1037.28,2836.22 1028.28,2823.75C1015.93,2806.65 1010.3,2788.03 1008.48,2779.72C1000.13,2741.52 1004.34,2720.49 1013.24,2707.65C1021.73,2695.39 1038.52,2686.23 1050.65,2683.14C1062.78,2680.05 1071.6,2679.32 1075.79,2679.31C1079.99,2679.29 1083.91,2679.28 1086.63,2682.68C1089.34,2686.07 1091,2689.01 1097.08,2689.01C1097.18,2689.01 1097.27,2689.07 1097.37,2689.17C1097.46,2689.07 1097.56,2689.01 1097.65,2689.01C1103.73,2689.01 1105.39,2686.07 1108.11,2682.68C1110.82,2679.28 1114.75,2679.29 1118.94,2679.31C1123.13,2679.32 1131.95,2680.05 1144.08,2683.14C1156.21,2686.23 1173,2695.39 1181.5,2707.65C1190.4,2720.49 1194.6,2741.52 1186.25,2779.72C1184.43,2788.03 1178.8,2806.65 1166.46,2823.75C1157.45,2836.22 1142.71,2848.27 1133.94,2852.97C1110.17,2865.68 1100.33,2892.92 1097.65,2892.92C1097.56,2892.92 1097.46,2892.66 1097.37,2892.17Z" style="fill:rgb(219,234,219);"/>
                            </g>
                        </g>
                        <g transform="matrix(4.53303e-17,-0.808637,0.79474,5.3156e-17,-1769.58,1366.17)">
                            <g id="Pink-Dogwood-Petal27" serif:id="Pink Dogwood Petal">
                                <path d="M1097.37,2892.17C1097.27,2892.66 1097.17,2892.92 1097.08,2892.92C1094.41,2892.92 1084.56,2865.68 1060.79,2852.97C1052.02,2848.27 1037.28,2836.22 1028.28,2823.75C1015.93,2806.65 1010.3,2788.03 1008.48,2779.72C1000.13,2741.52 1004.34,2720.49 1013.24,2707.65C1021.73,2695.39 1038.52,2686.23 1050.65,2683.14C1062.78,2680.05 1071.6,2679.32 1075.79,2679.31C1079.99,2679.29 1083.91,2679.28 1086.63,2682.68C1089.34,2686.07 1091,2689.01 1097.08,2689.01C1097.18,2689.01 1097.27,2689.07 1097.37,2689.17C1097.46,2689.07 1097.56,2689.01 1097.65,2689.01C1103.73,2689.01 1105.39,2686.07 1108.11,2682.68C1110.82,2679.28 1114.75,2679.29 1118.94,2679.31C1123.13,2679.32 1131.95,2680.05 1144.08,2683.14C1156.21,2686.23 1173,2695.39 1181.5,2707.65C1190.4,2720.49 1194.6,2741.52 1186.25,2779.72C1184.43,2788.03 1178.8,2806.65 1166.46,2823.75C1157.45,2836.22 1142.71,2848.27 1133.94,2852.97C1110.17,2865.68 1100.33,2892.92 1097.65,2892.92C1097.56,2892.92 1097.46,2892.66 1097.37,2892.17Z" style="fill:rgb(219,234,219);"/>
                            </g>
                        </g>
                        <g transform="matrix(1.61363,0,0,1.76258,-496.395,-4701.43)">
                            <circle cx="638.709" cy="2939" r="20.99" style="fill:rgb(252,248,244);stroke:rgb(252,248,244);stroke-width:4.6px;"/>
                        </g>
                    </g>
                    <g transform="matrix(0.132599,0.000505552,-0.00161756,0.0347337,836.046,96.9057)">
                        <g transform="matrix(0.864865,0,0,0.944701,-74.1455,-2333.71)">
                            <path d="M1153.65,2919.78C1145.17,2933.49 1081.6,3007.13 1081.6,3007.13C1081.6,3007.13 1019.34,2933.28 1010.99,2919.78C997.979,2898.76 995.263,2878.37 996.371,2860.16C998.36,2827.45 1006.26,2808.57 1016.96,2790.99C1051.03,2735.02 1065.99,2679.89 1070.4,2654.03C1071.78,2645.96 1075.75,2630.38 1082.32,2630.38C1088.88,2630.38 1092.81,2645.69 1094.24,2654.03C1098.65,2679.89 1113.61,2735.02 1147.68,2790.99C1158.38,2808.57 1166.28,2827.45 1168.27,2860.16C1169.38,2878.37 1166.66,2898.76 1153.65,2919.78Z" style="fill:rgb(252,248,244);"/>
                        </g>
                        <g transform="matrix(5.29577e-17,0.944701,-0.864865,5.78463e-17,3462.68,-515.341)">
                            <path d="M1153.65,2919.78C1145.17,2933.49 1081.6,3007.13 1081.6,3007.13C1081.6,3007.13 1019.34,2933.28 1010.99,2919.78C997.979,2898.76 995.263,2878.37 996.371,2860.16C998.36,2827.45 1006.26,2808.57 1016.96,2790.99C1051.03,2735.02 1065.99,2679.89 1070.4,2654.03C1071.78,2645.96 1075.75,2630.38 1082.32,2630.38C1088.88,2630.38 1092.81,2645.69 1094.24,2654.03C1098.65,2679.89 1113.61,2735.02 1147.68,2790.99C1158.38,2808.57 1166.28,2827.45 1168.27,2860.16C1169.38,2878.37 1166.66,2898.76 1153.65,2919.78Z" style="fill:rgb(252,248,244);"/>
                        </g>
                        <g transform="matrix(-0.864865,-1.15693e-16,1.05915e-16,-0.944701,1797.97,3347.97)">
                            <path d="M1153.65,2919.78C1145.17,2933.49 1081.6,3007.13 1081.6,3007.13C1081.6,3007.13 1019.34,2933.28 1010.99,2919.78C997.979,2898.76 995.263,2878.37 996.371,2860.16C998.36,2827.45 1006.26,2808.57 1016.96,2790.99C1051.03,2735.02 1065.99,2679.89 1070.4,2654.03C1071.78,2645.96 1075.75,2630.38 1082.32,2630.38C1088.88,2630.38 1092.81,2645.69 1094.24,2654.03C1098.65,2679.89 1113.61,2735.02 1147.68,2790.99C1158.38,2808.57 1166.28,2827.45 1168.27,2860.16C1169.38,2878.37 1166.66,2898.76 1153.65,2919.78Z" style="fill:rgb(252,248,244);"/>
                        </g>
                        <g transform="matrix(1.03294e-15,-0.944701,0.864865,1.12829e-15,-1738.85,1529.6)">
                            <path d="M1153.65,2919.78C1145.17,2933.49 1081.6,3007.13 1081.6,3007.13C1081.6,3007.13 1019.34,2933.28 1010.99,2919.78C997.979,2898.76 995.263,2878.37 996.371,2860.16C998.36,2827.45 1006.26,2808.57 1016.96,2790.99C1051.03,2735.02 1065.99,2679.89 1070.4,2654.03C1071.78,2645.96 1075.75,2630.38 1082.32,2630.38C1088.88,2630.38 1092.81,2645.69 1094.24,2654.03C1098.65,2679.89 1113.61,2735.02 1147.68,2790.99C1158.38,2808.57 1166.28,2827.45 1168.27,2860.16C1169.38,2878.37 1166.66,2898.76 1153.65,2919.78Z" style="fill:rgb(252,248,244);"/>
                        </g>
                    </g>
                    <g transform="matrix(0.130397,0.00690372,-0.0220892,0.0341569,1095.18,149.235)">
                        <g transform="matrix(0.864865,0,0,0.944701,-74.1455,-2333.71)">
                            <path d="M1153.65,2919.78C1145.17,2933.49 1081.6,3007.13 1081.6,3007.13C1081.6,3007.13 1019.34,2933.28 1010.99,2919.78C997.979,2898.76 995.263,2878.37 996.371,2860.16C998.36,2827.45 1006.26,2808.57 1016.96,2790.99C1051.03,2735.02 1065.99,2679.89 1070.4,2654.03C1071.78,2645.96 1075.75,2630.38 1082.32,2630.38C1088.88,2630.38 1092.81,2645.69 1094.24,2654.03C1098.65,2679.89 1113.61,2735.02 1147.68,2790.99C1158.38,2808.57 1166.28,2827.45 1168.27,2860.16C1169.38,2878.37 1166.66,2898.76 1153.65,2919.78Z" style="fill:rgb(252,248,244);"/>
                        </g>
                        <g transform="matrix(5.29577e-17,0.944701,-0.864865,5.78463e-17,3462.68,-515.341)">
                            <path d="M1153.65,2919.78C1145.17,2933.49 1081.6,3007.13 1081.6,3007.13C1081.6,3007.13 1019.34,2933.28 1010.99,2919.78C997.979,2898.76 995.263,2878.37 996.371,2860.16C998.36,2827.45 1006.26,2808.57 1016.96,2790.99C1051.03,2735.02 1065.99,2679.89 1070.4,2654.03C1071.78,2645.96 1075.75,2630.38 1082.32,2630.38C1088.88,2630.38 1092.81,2645.69 1094.24,2654.03C1098.65,2679.89 1113.61,2735.02 1147.68,2790.99C1158.38,2808.57 1166.28,2827.45 1168.27,2860.16C1169.38,2878.37 1166.66,2898.76 1153.65,2919.78Z" style="fill:rgb(252,248,244);"/>
                        </g>
                        <g transform="matrix(-0.864865,-1.15693e-16,1.05915e-16,-0.944701,1797.97,3347.97)">
                            <path d="M1153.65,2919.78C1145.17,2933.49 1081.6,3007.13 1081.6,3007.13C1081.6,3007.13 1019.34,2933.28 1010.99,2919.78C997.979,2898.76 995.263,2878.37 996.371,2860.16C998.36,2827.45 1006.26,2808.57 1016.96,2790.99C1051.03,2735.02 1065.99,2679.89 1070.4,2654.03C1071.78,2645.96 1075.75,2630.38 1082.32,2630.38C1088.88,2630.38 1092.81,2645.69 1094.24,2654.03C1098.65,2679.89 1113.61,2735.02 1147.68,2790.99C1158.38,2808.57 1166.28,2827.45 1168.27,2860.16C1169.38,2878.37 1166.66,2898.76 1153.65,2919.78Z" style="fill:rgb(252,248,244);"/>
                        </g>
                        <g transform="matrix(1.03294e-15,-0.944701,0.864865,1.12829e-15,-1738.85,1529.6)">
                            <path d="M1153.65,2919.78C1145.17,2933.49 1081.6,3007.13 1081.6,3007.13C1081.6,3007.13 1019.34,2933.28 1010.99,2919.78C997.979,2898.76 995.263,2878.37 996.371,2860.16C998.36,2827.45 1006.26,2808.57 1016.96,2790.99C1051.03,2735.02 1065.99,2679.89 1070.4,2654.03C1071.78,2645.96 1075.75,2630.38 1082.32,2630.38C1088.88,2630.38 1092.81,2645.69 1094.24,2654.03C1098.65,2679.89 1113.61,2735.02 1147.68,2790.99C1158.38,2808.57 1166.28,2827.45 1168.27,2860.16C1169.38,2878.37 1166.66,2898.76 1153.65,2919.78Z" style="fill:rgb(252,248,244);"/>
                        </g>
                    </g>
                    <g transform="matrix(0.131242,0.0054375,-0.0173978,0.0343782,610.404,81.4105)">
                        <g transform="matrix(0.864865,0,0,0.944701,-74.1455,-2333.71)">
                            <path d="M1153.65,2919.78C1145.17,2933.49 1081.6,3007.13 1081.6,3007.13C1081.6,3007.13 1019.34,2933.28 1010.99,2919.78C997.979,2898.76 995.263,2878.37 996.371,2860.16C998.36,2827.45 1006.26,2808.57 1016.96,2790.99C1051.03,2735.02 1065.99,2679.89 1070.4,2654.03C1071.78,2645.96 1075.75,2630.38 1082.32,2630.38C1088.88,2630.38 1092.81,2645.69 1094.24,2654.03C1098.65,2679.89 1113.61,2735.02 1147.68,2790.99C1158.38,2808.57 1166.28,2827.45 1168.27,2860.16C1169.38,2878.37 1166.66,2898.76 1153.65,2919.78Z" style="fill:rgb(228,240,230);"/>
                        </g>
                        <g transform="matrix(5.29577e-17,0.944701,-0.864865,5.78463e-17,3462.68,-515.341)">
                            <path d="M1153.65,2919.78C1145.17,2933.49 1081.6,3007.13 1081.6,3007.13C1081.6,3007.13 1019.34,2933.28 1010.99,2919.78C997.979,2898.76 995.263,2878.37 996.371,2860.16C998.36,2827.45 1006.26,2808.57 1016.96,2790.99C1051.03,2735.02 1065.99,2679.89 1070.4,2654.03C1071.78,2645.96 1075.75,2630.38 1082.32,2630.38C1088.88,2630.38 1092.81,2645.69 1094.24,2654.03C1098.65,2679.89 1113.61,2735.02 1147.68,2790.99C1158.38,2808.57 1166.28,2827.45 1168.27,2860.16C1169.38,2878.37 1166.66,2898.76 1153.65,2919.78Z" style="fill:rgb(228,240,230);"/>
                        </g>
                        <g transform="matrix(-0.864865,-1.15693e-16,1.05915e-16,-0.944701,1797.97,3347.97)">
                            <path d="M1153.65,2919.78C1145.17,2933.49 1081.6,3007.13 1081.6,3007.13C1081.6,3007.13 1019.34,2933.28 1010.99,2919.78C997.979,2898.76 995.263,2878.37 996.371,2860.16C998.36,2827.45 1006.26,2808.57 1016.96,2790.99C1051.03,2735.02 1065.99,2679.89 1070.4,2654.03C1071.78,2645.96 1075.75,2630.38 1082.32,2630.38C1088.88,2630.38 1092.81,2645.69 1094.24,2654.03C1098.65,2679.89 1113.61,2735.02 1147.68,2790.99C1158.38,2808.57 1166.28,2827.45 1168.27,2860.16C1169.38,2878.37 1166.66,2898.76 1153.65,2919.78Z" style="fill:rgb(228,240,230);"/>
                        </g>
                        <g transform="matrix(1.03294e-15,-0.944701,0.864865,1.12829e-15,-1738.85,1529.6)">
                            <path d="M1153.65,2919.78C1145.17,2933.49 1081.6,3007.13 1081.6,3007.13C1081.6,3007.13 1019.34,2933.28 1010.99,2919.78C997.979,2898.76 995.263,2878.37 996.371,2860.16C998.36,2827.45 1006.26,2808.57 1016.96,2790.99C1051.03,2735.02 1065.99,2679.89 1070.4,2654.03C1071.78,2645.96 1075.75,2630.38 1082.32,2630.38C1088.88,2630.38 1092.81,2645.69 1094.24,2654.03C1098.65,2679.89 1113.61,2735.02 1147.68,2790.99C1158.38,2808.57 1166.28,2827.45 1168.27,2860.16C1169.38,2878.37 1166.66,2898.76 1153.65,2919.78Z" style="fill:rgb(228,240,230);"/>
                        </g>
                    </g>
                    <g transform="matrix(0.130052,0.0074171,-0.0237318,0.0340666,782.247,54.5266)">
                        <g transform="matrix(0.864865,0,0,0.944701,-74.1455,-2333.71)">
                            <path d="M1153.65,2919.78C1145.17,2933.49 1081.6,3007.13 1081.6,3007.13C1081.6,3007.13 1019.34,2933.28 1010.99,2919.78C997.979,2898.76 995.263,2878.37 996.371,2860.16C998.36,2827.45 1006.26,2808.57 1016.96,2790.99C1051.03,2735.02 1065.99,2679.89 1070.4,2654.03C1071.78,2645.96 1075.75,2630.38 1082.32,2630.38C1088.88,2630.38 1092.81,2645.69 1094.24,2654.03C1098.65,2679.89 1113.61,2735.02 1147.68,2790.99C1158.38,2808.57 1166.28,2827.45 1168.27,2860.16C1169.38,2878.37 1166.66,2898.76 1153.65,2919.78Z" style="fill:rgb(228,240,230);"/>
                        </g>
                        <g transform="matrix(5.29577e-17,0.944701,-0.864865,5.78463e-17,3462.68,-515.341)">
                            <path d="M1153.65,2919.78C1145.17,2933.49 1081.6,3007.13 1081.6,3007.13C1081.6,3007.13 1019.34,2933.28 1010.99,2919.78C997.979,2898.76 995.263,2878.37 996.371,2860.16C998.36,2827.45 1006.26,2808.57 1016.96,2790.99C1051.03,2735.02 1065.99,2679.89 1070.4,2654.03C1071.78,2645.96 1075.75,2630.38 1082.32,2630.38C1088.88,2630.38 1092.81,2645.69 1094.24,2654.03C1098.65,2679.89 1113.61,2735.02 1147.68,2790.99C1158.38,2808.57 1166.28,2827.45 1168.27,2860.16C1169.38,2878.37 1166.66,2898.76 1153.65,2919.78Z" style="fill:rgb(228,240,230);"/>
                        </g>
                        <g transform="matrix(-0.864865,-1.15693e-16,1.05915e-16,-0.944701,1797.97,3347.97)">
                            <path d="M1153.65,2919.78C1145.17,2933.49 1081.6,3007.13 1081.6,3007.13C1081.6,3007.13 1019.34,2933.28 1010.99,2919.78C997.979,2898.76 995.263,2878.37 996.371,2860.16C998.36,2827.45 1006.26,2808.57 1016.96,2790.99C1051.03,2735.02 1065.99,2679.89 1070.4,2654.03C1071.78,2645.96 1075.75,2630.38 1082.32,2630.38C1088.88,2630.38 1092.81,2645.69 1094.24,2654.03C1098.65,2679.89 1113.61,2735.02 1147.68,2790.99C1158.38,2808.57 1166.28,2827.45 1168.27,2860.16C1169.38,2878.37 1166.66,2898.76 1153.65,2919.78Z" style="fill:rgb(228,240,230);"/>
                        </g>
                        <g transform="matrix(1.03294e-15,-0.944701,0.864865,1.12829e-15,-1738.85,1529.6)">
                            <path d="M1153.65,2919.78C1145.17,2933.49 1081.6,3007.13 1081.6,3007.13C1081.6,3007.13 1019.34,2933.28 1010.99,2919.78C997.979,2898.76 995.263,2878.37 996.371,2860.16C998.36,2827.45 1006.26,2808.57 1016.96,2790.99C1051.03,2735.02 1065.99,2679.89 1070.4,2654.03C1071.78,2645.96 1075.75,2630.38 1082.32,2630.38C1088.88,2630.38 1092.81,2645.69 1094.24,2654.03C1098.65,2679.89 1113.61,2735.02 1147.68,2790.99C1158.38,2808.57 1166.28,2827.45 1168.27,2860.16C1169.38,2878.37 1166.66,2898.76 1153.65,2919.78Z" style="fill:rgb(228,240,230);"/>
                        </g>
                    </g>
                    <g transform="matrix(0.130397,0.00690372,-0.0220892,0.0341569,926.766,203.574)">
                        <g transform="matrix(0.864865,0,0,0.944701,-74.1455,-2333.71)">
                            <path d="M1153.65,2919.78C1145.17,2933.49 1081.6,3007.13 1081.6,3007.13C1081.6,3007.13 1019.34,2933.28 1010.99,2919.78C997.979,2898.76 995.263,2878.37 996.371,2860.16C998.36,2827.45 1006.26,2808.57 1016.96,2790.99C1051.03,2735.02 1065.99,2679.89 1070.4,2654.03C1071.78,2645.96 1075.75,2630.38 1082.32,2630.38C1088.88,2630.38 1092.81,2645.69 1094.24,2654.03C1098.65,2679.89 1113.61,2735.02 1147.68,2790.99C1158.38,2808.57 1166.28,2827.45 1168.27,2860.16C1169.38,2878.37 1166.66,2898.76 1153.65,2919.78Z" style="fill:rgb(252,248,244);"/>
                        </g>
                        <g transform="matrix(5.29577e-17,0.944701,-0.864865,5.78463e-17,3462.68,-515.341)">
                            <path d="M1153.65,2919.78C1145.17,2933.49 1081.6,3007.13 1081.6,3007.13C1081.6,3007.13 1019.34,2933.28 1010.99,2919.78C997.979,2898.76 995.263,2878.37 996.371,2860.16C998.36,2827.45 1006.26,2808.57 1016.96,2790.99C1051.03,2735.02 1065.99,2679.89 1070.4,2654.03C1071.78,2645.96 1075.75,2630.38 1082.32,2630.38C1088.88,2630.38 1092.81,2645.69 1094.24,2654.03C1098.65,2679.89 1113.61,2735.02 1147.68,2790.99C1158.38,2808.57 1166.28,2827.45 1168.27,2860.16C1169.38,2878.37 1166.66,2898.76 1153.65,2919.78Z" style="fill:rgb(252,248,244);"/>
                        </g>
                        <g transform="matrix(-0.864865,-1.15693e-16,1.05915e-16,-0.944701,1797.97,3347.97)">
                            <path d="M1153.65,2919.78C1145.17,2933.49 1081.6,3007.13 1081.6,3007.13C1081.6,3007.13 1019.34,2933.28 1010.99,2919.78C997.979,2898.76 995.263,2878.37 996.371,2860.16C998.36,2827.45 1006.26,2808.57 1016.96,2790.99C1051.03,2735.02 1065.99,2679.89 1070.4,2654.03C1071.78,2645.96 1075.75,2630.38 1082.32,2630.38C1088.88,2630.38 1092.81,2645.69 1094.24,2654.03C1098.65,2679.89 1113.61,2735.02 1147.68,2790.99C1158.38,2808.57 1166.28,2827.45 1168.27,2860.16C1169.38,2878.37 1166.66,2898.76 1153.65,2919.78Z" style="fill:rgb(252,248,244);"/>
                        </g>
                        <g transform="matrix(1.03294e-15,-0.944701,0.864865,1.12829e-15,-1738.85,1529.6)">
                            <path d="M1153.65,2919.78C1145.17,2933.49 1081.6,3007.13 1081.6,3007.13C1081.6,3007.13 1019.34,2933.28 1010.99,2919.78C997.979,2898.76 995.263,2878.37 996.371,2860.16C998.36,2827.45 1006.26,2808.57 1016.96,2790.99C1051.03,2735.02 1065.99,2679.89 1070.4,2654.03C1071.78,2645.96 1075.75,2630.38 1082.32,2630.38C1088.88,2630.38 1092.81,2645.69 1094.24,2654.03C1098.65,2679.89 1113.61,2735.02 1147.68,2790.99C1158.38,2808.57 1166.28,2827.45 1168.27,2860.16C1169.38,2878.37 1166.66,2898.76 1153.65,2919.78Z" style="fill:rgb(252,248,244);"/>
                        </g>
                    </g>
                    <g transform="matrix(0.116628,0.00617474,-0.0197567,0.0305503,1039.2,73.9545)">
                        <g transform="matrix(0.864865,0,0,0.944701,-74.1455,-2333.71)">
                            <path d="M1153.65,2919.78C1145.17,2933.49 1081.6,3007.13 1081.6,3007.13C1081.6,3007.13 1019.34,2933.28 1010.99,2919.78C997.979,2898.76 995.263,2878.37 996.371,2860.16C998.36,2827.45 1006.26,2808.57 1016.96,2790.99C1051.03,2735.02 1065.99,2679.89 1070.4,2654.03C1071.78,2645.96 1075.75,2630.38 1082.32,2630.38C1088.88,2630.38 1092.81,2645.69 1094.24,2654.03C1098.65,2679.89 1113.61,2735.02 1147.68,2790.99C1158.38,2808.57 1166.28,2827.45 1168.27,2860.16C1169.38,2878.37 1166.66,2898.76 1153.65,2919.78Z" style="fill:rgb(252,248,244);"/>
                        </g>
                        <g transform="matrix(5.29577e-17,0.944701,-0.864865,5.78463e-17,3462.68,-515.341)">
                            <path d="M1153.65,2919.78C1145.17,2933.49 1081.6,3007.13 1081.6,3007.13C1081.6,3007.13 1019.34,2933.28 1010.99,2919.78C997.979,2898.76 995.263,2878.37 996.371,2860.16C998.36,2827.45 1006.26,2808.57 1016.96,2790.99C1051.03,2735.02 1065.99,2679.89 1070.4,2654.03C1071.78,2645.96 1075.75,2630.38 1082.32,2630.38C1088.88,2630.38 1092.81,2645.69 1094.24,2654.03C1098.65,2679.89 1113.61,2735.02 1147.68,2790.99C1158.38,2808.57 1166.28,2827.45 1168.27,2860.16C1169.38,2878.37 1166.66,2898.76 1153.65,2919.78Z" style="fill:rgb(252,248,244);"/>
                        </g>
                        <g transform="matrix(-0.864865,-1.15693e-16,1.05915e-16,-0.944701,1797.97,3347.97)">
                            <path d="M1153.65,2919.78C1145.17,2933.49 1081.6,3007.13 1081.6,3007.13C1081.6,3007.13 1019.34,2933.28 1010.99,2919.78C997.979,2898.76 995.263,2878.37 996.371,2860.16C998.36,2827.45 1006.26,2808.57 1016.96,2790.99C1051.03,2735.02 1065.99,2679.89 1070.4,2654.03C1071.78,2645.96 1075.75,2630.38 1082.32,2630.38C1088.88,2630.38 1092.81,2645.69 1094.24,2654.03C1098.65,2679.89 1113.61,2735.02 1147.68,2790.99C1158.38,2808.57 1166.28,2827.45 1168.27,2860.16C1169.38,2878.37 1166.66,2898.76 1153.65,2919.78Z" style="fill:rgb(252,248,244);"/>
                        </g>
                        <g transform="matrix(1.03294e-15,-0.944701,0.864865,1.12829e-15,-1738.85,1529.6)">
                            <path d="M1153.65,2919.78C1145.17,2933.49 1081.6,3007.13 1081.6,3007.13C1081.6,3007.13 1019.34,2933.28 1010.99,2919.78C997.979,2898.76 995.263,2878.37 996.371,2860.16C998.36,2827.45 1006.26,2808.57 1016.96,2790.99C1051.03,2735.02 1065.99,2679.89 1070.4,2654.03C1071.78,2645.96 1075.75,2630.38 1082.32,2630.38C1088.88,2630.38 1092.81,2645.69 1094.24,2654.03C1098.65,2679.89 1113.61,2735.02 1147.68,2790.99C1158.38,2808.57 1166.28,2827.45 1168.27,2860.16C1169.38,2878.37 1166.66,2898.76 1153.65,2919.78Z" style="fill:rgb(252,248,244);"/>
                        </g>
                    </g>
                    <g id="Pink-Dogwood-Flour7" serif:id="Pink Dogwood Flour" transform="matrix(0.24071,-0.000877302,0.00280702,0.0630529,1115.62,185.55)">
                        <g transform="matrix(2.32188,0,0,2.53622,-948.765,-6975.15)">
                            <circle cx="638.709" cy="2939" r="20.99" style="fill:rgb(252,248,244);stroke:rgb(252,248,244);stroke-width:2.23px;"/>
                        </g>
                        <g transform="matrix(0.740299,-1.5192e-32,4.32562e-33,0.868104,-278.136,-2037.69)">
                            <g id="Pink-Dogwood-Petal28" serif:id="Pink Dogwood Petal">
                                <path d="M1097.37,2892.17C1097.27,2892.66 1097.17,2892.92 1097.08,2892.92C1094.41,2892.92 1084.56,2865.68 1060.79,2852.97C1052.02,2848.27 1037.28,2836.22 1028.28,2823.75C1015.93,2806.65 1010.3,2788.03 1008.48,2779.72C1000.13,2741.52 1004.34,2720.49 1013.24,2707.65C1021.73,2695.39 1038.52,2686.23 1050.65,2683.14C1062.78,2680.05 1071.6,2679.32 1075.79,2679.31C1079.99,2679.29 1083.91,2679.28 1086.63,2682.68C1089.34,2686.07 1091,2689.01 1097.08,2689.01C1097.18,2689.01 1097.27,2689.07 1097.37,2689.17C1097.46,2689.07 1097.56,2689.01 1097.65,2689.01C1103.73,2689.01 1105.39,2686.07 1108.11,2682.68C1110.82,2679.28 1114.75,2679.29 1118.94,2679.31C1123.13,2679.32 1131.95,2680.05 1144.08,2683.14C1156.21,2686.23 1173,2695.39 1181.5,2707.65C1190.4,2720.49 1194.6,2741.52 1186.25,2779.72C1184.43,2788.03 1178.8,2806.65 1166.46,2823.75C1157.45,2836.22 1142.71,2848.27 1133.94,2852.97C1110.17,2865.68 1100.33,2892.92 1097.65,2892.92C1097.56,2892.92 1097.46,2892.66 1097.37,2892.17Z" style="fill:rgb(219,234,219);"/>
                            </g>
                        </g>
                        <g transform="matrix(4.53303e-17,0.808637,-0.79474,5.3156e-17,2838.06,-408.574)">
                            <g id="Pink-Dogwood-Petal29" serif:id="Pink Dogwood Petal">
                                <path d="M1097.37,2892.17C1097.27,2892.66 1097.17,2892.92 1097.08,2892.92C1094.41,2892.92 1084.56,2865.68 1060.79,2852.97C1052.02,2848.27 1037.28,2836.22 1028.28,2823.75C1015.93,2806.65 1010.3,2788.03 1008.48,2779.72C1000.13,2741.52 1004.34,2720.49 1013.24,2707.65C1021.73,2695.39 1038.52,2686.23 1050.65,2683.14C1062.78,2680.05 1071.6,2679.32 1075.79,2679.31C1079.99,2679.29 1083.91,2679.28 1086.63,2682.68C1089.34,2686.07 1091,2689.01 1097.08,2689.01C1097.18,2689.01 1097.27,2689.07 1097.37,2689.17C1097.46,2689.07 1097.56,2689.01 1097.65,2689.01C1103.73,2689.01 1105.39,2686.07 1108.11,2682.68C1110.82,2679.28 1114.75,2679.29 1118.94,2679.31C1123.13,2679.32 1131.95,2680.05 1144.08,2683.14C1156.21,2686.23 1173,2695.39 1181.5,2707.65C1190.4,2720.49 1194.6,2741.52 1186.25,2779.72C1184.43,2788.03 1178.8,2806.65 1166.46,2823.75C1157.45,2836.22 1142.71,2848.27 1133.94,2852.97C1110.17,2865.68 1100.33,2892.92 1097.65,2892.92C1097.56,2892.92 1097.46,2892.66 1097.37,2892.17Z" style="fill:rgb(219,234,219);"/>
                            </g>
                        </g>
                        <g transform="matrix(-0.740299,-9.90295e-17,9.73276e-17,-0.868104,1346.62,2995.29)">
                            <g id="Pink-Dogwood-Petal30" serif:id="Pink Dogwood Petal">
                                <path d="M1097.37,2892.17C1097.27,2892.66 1097.17,2892.92 1097.08,2892.92C1094.41,2892.92 1084.56,2865.68 1060.79,2852.97C1052.02,2848.27 1037.28,2836.22 1028.28,2823.75C1015.93,2806.65 1010.3,2788.03 1008.48,2779.72C1000.13,2741.52 1004.34,2720.49 1013.24,2707.65C1021.73,2695.39 1038.52,2686.23 1050.65,2683.14C1062.78,2680.05 1071.6,2679.32 1075.79,2679.31C1079.99,2679.29 1083.91,2679.28 1086.63,2682.68C1089.34,2686.07 1091,2689.01 1097.08,2689.01C1097.18,2689.01 1097.27,2689.07 1097.37,2689.17C1097.46,2689.07 1097.56,2689.01 1097.65,2689.01C1103.73,2689.01 1105.39,2686.07 1108.11,2682.68C1110.82,2679.28 1114.75,2679.29 1118.94,2679.31C1123.13,2679.32 1131.95,2680.05 1144.08,2683.14C1156.21,2686.23 1173,2695.39 1181.5,2707.65C1190.4,2720.49 1194.6,2741.52 1186.25,2779.72C1184.43,2788.03 1178.8,2806.65 1166.46,2823.75C1157.45,2836.22 1142.71,2848.27 1133.94,2852.97C1110.17,2865.68 1100.33,2892.92 1097.65,2892.92C1097.56,2892.92 1097.46,2892.66 1097.37,2892.17Z" style="fill:rgb(219,234,219);"/>
                            </g>
                        </g>
                        <g transform="matrix(4.53303e-17,-0.808637,0.79474,5.3156e-17,-1769.58,1366.17)">
                            <g id="Pink-Dogwood-Petal31" serif:id="Pink Dogwood Petal">
                                <path d="M1097.37,2892.17C1097.27,2892.66 1097.17,2892.92 1097.08,2892.92C1094.41,2892.92 1084.56,2865.68 1060.79,2852.97C1052.02,2848.27 1037.28,2836.22 1028.28,2823.75C1015.93,2806.65 1010.3,2788.03 1008.48,2779.72C1000.13,2741.52 1004.34,2720.49 1013.24,2707.65C1021.73,2695.39 1038.52,2686.23 1050.65,2683.14C1062.78,2680.05 1071.6,2679.32 1075.79,2679.31C1079.99,2679.29 1083.91,2679.28 1086.63,2682.68C1089.34,2686.07 1091,2689.01 1097.08,2689.01C1097.18,2689.01 1097.27,2689.07 1097.37,2689.17C1097.46,2689.07 1097.56,2689.01 1097.65,2689.01C1103.73,2689.01 1105.39,2686.07 1108.11,2682.68C1110.82,2679.28 1114.75,2679.29 1118.94,2679.31C1123.13,2679.32 1131.95,2680.05 1144.08,2683.14C1156.21,2686.23 1173,2695.39 1181.5,2707.65C1190.4,2720.49 1194.6,2741.52 1186.25,2779.72C1184.43,2788.03 1178.8,2806.65 1166.46,2823.75C1157.45,2836.22 1142.71,2848.27 1133.94,2852.97C1110.17,2865.68 1100.33,2892.92 1097.65,2892.92C1097.56,2892.92 1097.46,2892.66 1097.37,2892.17Z" style="fill:rgb(219,234,219);"/>
                            </g>
                        </g>
                        <g transform="matrix(1.61363,0,0,1.76258,-496.395,-4701.43)">
                            <circle cx="638.709" cy="2939" r="20.99" style="fill:rgb(252,248,244);stroke:rgb(252,248,244);stroke-width:4.6px;"/>
                        </g>
                    </g>
                    <g transform="matrix(0.116628,0.00617474,-0.0197567,0.0305503,1127.42,204.004)">
                        <g transform="matrix(0.864865,0,0,0.944701,-74.1455,-2333.71)">
                            <path d="M1153.65,2919.78C1145.17,2933.49 1081.6,3007.13 1081.6,3007.13C1081.6,3007.13 1019.34,2933.28 1010.99,2919.78C997.979,2898.76 995.263,2878.37 996.371,2860.16C998.36,2827.45 1006.26,2808.57 1016.96,2790.99C1051.03,2735.02 1065.99,2679.89 1070.4,2654.03C1071.78,2645.96 1075.75,2630.38 1082.32,2630.38C1088.88,2630.38 1092.81,2645.69 1094.24,2654.03C1098.65,2679.89 1113.61,2735.02 1147.68,2790.99C1158.38,2808.57 1166.28,2827.45 1168.27,2860.16C1169.38,2878.37 1166.66,2898.76 1153.65,2919.78Z" style="fill:rgb(252,248,244);"/>
                        </g>
                        <g transform="matrix(5.29577e-17,0.944701,-0.864865,5.78463e-17,3462.68,-515.341)">
                            <path d="M1153.65,2919.78C1145.17,2933.49 1081.6,3007.13 1081.6,3007.13C1081.6,3007.13 1019.34,2933.28 1010.99,2919.78C997.979,2898.76 995.263,2878.37 996.371,2860.16C998.36,2827.45 1006.26,2808.57 1016.96,2790.99C1051.03,2735.02 1065.99,2679.89 1070.4,2654.03C1071.78,2645.96 1075.75,2630.38 1082.32,2630.38C1088.88,2630.38 1092.81,2645.69 1094.24,2654.03C1098.65,2679.89 1113.61,2735.02 1147.68,2790.99C1158.38,2808.57 1166.28,2827.45 1168.27,2860.16C1169.38,2878.37 1166.66,2898.76 1153.65,2919.78Z" style="fill:rgb(252,248,244);"/>
                        </g>
                        <g transform="matrix(-0.864865,-1.15693e-16,1.05915e-16,-0.944701,1797.97,3347.97)">
                            <path d="M1153.65,2919.78C1145.17,2933.49 1081.6,3007.13 1081.6,3007.13C1081.6,3007.13 1019.34,2933.28 1010.99,2919.78C997.979,2898.76 995.263,2878.37 996.371,2860.16C998.36,2827.45 1006.26,2808.57 1016.96,2790.99C1051.03,2735.02 1065.99,2679.89 1070.4,2654.03C1071.78,2645.96 1075.75,2630.38 1082.32,2630.38C1088.88,2630.38 1092.81,2645.69 1094.24,2654.03C1098.65,2679.89 1113.61,2735.02 1147.68,2790.99C1158.38,2808.57 1166.28,2827.45 1168.27,2860.16C1169.38,2878.37 1166.66,2898.76 1153.65,2919.78Z" style="fill:rgb(252,248,244);"/>
                        </g>
                        <g transform="matrix(1.03294e-15,-0.944701,0.864865,1.12829e-15,-1738.85,1529.6)">
                            <path d="M1153.65,2919.78C1145.17,2933.49 1081.6,3007.13 1081.6,3007.13C1081.6,3007.13 1019.34,2933.28 1010.99,2919.78C997.979,2898.76 995.263,2878.37 996.371,2860.16C998.36,2827.45 1006.26,2808.57 1016.96,2790.99C1051.03,2735.02 1065.99,2679.89 1070.4,2654.03C1071.78,2645.96 1075.75,2630.38 1082.32,2630.38C1088.88,2630.38 1092.81,2645.69 1094.24,2654.03C1098.65,2679.89 1113.61,2735.02 1147.68,2790.99C1158.38,2808.57 1166.28,2827.45 1168.27,2860.16C1169.38,2878.37 1166.66,2898.76 1153.65,2919.78Z" style="fill:rgb(252,248,244);"/>
                        </g>
                    </g>
                    <g transform="matrix(0.0186642,-0.0288609,0.100868,0.00534032,973.156,188.271)">
                        <path d="M1153.65,2919.78C1145.17,2933.49 1081.6,3007.13 1081.6,3007.13C1081.6,3007.13 1019.34,2933.28 1010.99,2919.78C997.979,2898.76 995.263,2878.37 996.371,2860.16C998.36,2827.45 1006.26,2808.57 1016.96,2790.99C1051.03,2735.02 1065.99,2679.89 1070.4,2654.03C1071.78,2645.96 1075.75,2630.38 1082.32,2630.38C1088.88,2630.38 1092.81,2645.69 1094.24,2654.03C1098.65,2679.89 1113.61,2735.02 1147.68,2790.99C1158.38,2808.57 1166.28,2827.45 1168.27,2860.16C1169.38,2878.37 1166.66,2898.76 1153.65,2919.78Z" style="fill:rgb(252,248,244);"/>
                    </g>
                    <g id="Pink-Dogwood-Flour8" serif:id="Pink Dogwood Flour">
                    </g>
                </g>
            </g>
        </g>
    </g>
</svg>
