<?xml version="1.0" encoding="UTF-8" standalone="no"?>
<!DOCTYPE svg PUBLIC "-//W3C//DTD SVG 1.1//EN" "http://www.w3.org/Graphics/SVG/1.1/DTD/svg11.dtd">
<svg width="100%" height="100%" viewBox="0 0 198 325" version="1.1" xmlns="http://www.w3.org/2000/svg" xmlns:xlink="http://www.w3.org/1999/xlink" xml:space="preserve" xmlns:serif="http://www.serif.com/" style="fill-rule:evenodd;clip-rule:evenodd;stroke-linejoin:round;stroke-miterlimit:2;">
    <g id="featured-mask" serif:id="featured mask" transform="matrix(1,0,0,1,-10988.9,-449.658)">
        <path d="M10989,607C10989.8,567.954 10989.6,483.271 10998,466C11000.6,460.685 11004,457.019 11021,453.651C11028.7,452.14 11063.1,450.385 11083.7,450C11102,449.659 11126.2,449.443 11140,450C11153.8,450.557 11174.2,447.487 11181,459C11186.2,467.739 11186.2,574.02 11186,599C11185.8,623.98 11185.2,742.801 11184,753C11182.8,763.199 11183.5,768.068 11164,772C11152.1,774.397 11137,776.717 11112,770C11092.9,764.853 11075.6,756.134 11058,750C11033.7,741.531 11013.1,741.374 11007,734C10999.1,724.47 10993.6,716.913 10992,699C10990.4,681.087 10988.6,626.731 10989,607Z"/>
    </g>
</svg>
