<?xml version="1.0" encoding="UTF-8" standalone="no"?>
<!DOCTYPE svg PUBLIC "-//W3C//DTD SVG 1.1//EN" "http://www.w3.org/Graphics/SVG/1.1/DTD/svg11.dtd">
<svg width="100%" height="100%" viewBox="0 0 251 182" version="1.1" xmlns="http://www.w3.org/2000/svg" xmlns:xlink="http://www.w3.org/1999/xlink" xml:space="preserve" xmlns:serif="http://www.serif.com/" style="fill-rule:evenodd;clip-rule:evenodd;stroke-linejoin:round;stroke-miterlimit:2;">
    <g id="screen-mask" transform="matrix(1,0,0,1,-742.348,-858.639)">
        <path d="M867.691,858.639C881.248,858.639 938.533,859.992 947.19,860.634C955.686,861.264 979.79,862.148 985.096,867.022C990.793,872.255 990.577,884.234 991.206,890.675C991.841,897.179 993.035,937.57 993.035,947.728C993.035,957.886 991.787,998.365 990.953,1005.51C990.03,1013.41 990.363,1029.63 983.737,1033.86C977.111,1038.08 961.367,1038.44 950.143,1039.35C938.647,1040.29 880.162,1040.61 867.691,1040.61C855.221,1040.61 796.736,1040.29 785.24,1039.35C774.015,1038.44 758.271,1038.08 751.645,1033.86C745.019,1029.63 745.352,1013.41 744.429,1005.51C743.596,998.365 742.348,957.886 742.348,947.728C742.348,937.57 743.541,897.179 744.176,890.675C744.805,884.234 744.589,872.255 750.286,867.022C755.592,862.148 779.696,861.264 788.192,860.634C796.849,859.992 854.134,858.639 867.691,858.639Z"/>
    </g>
</svg>
