<?xml version="1.0" encoding="UTF-8" standalone="no"?>
<!DOCTYPE svg PUBLIC "-//W3C//DTD SVG 1.1//EN" "http://www.w3.org/Graphics/SVG/1.1/DTD/svg11.dtd">
<svg width="100%" height="100%" viewBox="0 0 64 64" version="1.1" xmlns="http://www.w3.org/2000/svg" xmlns:xlink="http://www.w3.org/1999/xlink" xml:space="preserve" xmlns:serif="http://www.serif.com/" style="fill-rule:evenodd;clip-rule:evenodd;stroke-linejoin:round;stroke-miterlimit:2;">
    <g transform="matrix(0.106666,0,0,0.106666,-10.6666,-10.6665)">
        <path d="M611.25,611.25L522.35,611.25L522.35,472C522.35,438.8 521.75,396.05 476.1,396.05C429.8,396.05 422.7,432.25 422.7,469.55L422.7,611.25L333.8,611.25L333.8,324.9L419.15,324.9L419.15,364.05L420.35,364.05C437.75,334.35 470.15,316.55 504.55,317.8C594.65,317.8 611.3,377.05 611.3,454.2L611.25,611.2L611.25,611.25ZM233.5,285.75C205.263,285.614 182.063,262.436 181.9,234.2C181.9,205.9 205.2,182.6 233.5,182.6C261.8,182.6 285.05,205.9 285.1,234.2C285.1,262.5 261.8,285.8 233.5,285.8L233.5,285.75ZM277.95,611.25L188.95,611.25L188.95,324.9L277.95,324.9L277.95,611.25ZM655.5,100L144.25,100C120.28,99.861 100.381,119.333 100,143.3L100,656.7C100.381,680.667 120.28,700.139 144.25,700L655.55,700C679.575,700.195 699.565,680.722 700,656.7L700,143.25C699.565,119.245 679.558,99.801 655.55,100.05L655.5,100Z" style="fill:rgb(159,177,255);fill-rule:nonzero;"/>
    </g>
</svg>
